<?xml version="1.0" encoding="utf-8" standalone="no"?>
<!DOCTYPE svg PUBLIC "-//W3C//DTD SVG 1.1//EN"
  "http://www.w3.org/Graphics/SVG/1.1/DTD/svg11.dtd">
<!-- Created with matplotlib (http://matplotlib.org/) -->
<svg height="288pt" version="1.1" viewBox="0 0 432 288" width="432pt" xmlns="http://www.w3.org/2000/svg" xmlns:xlink="http://www.w3.org/1999/xlink">
 <defs>
  <style type="text/css">
*{stroke-linecap:butt;stroke-linejoin:round;stroke-miterlimit:100000;}
  </style>
 </defs>
 <g id="figure_1">
  <g id="patch_1">
   <path d="M 0 288 
L 432 288 
L 432 0 
L 0 0 
z
" style="fill:#ffffff;"/>
  </g>
  <g id="axes_1">
   <g id="patch_2">
    <path d="M 54 252 
L 388.8 252 
L 388.8 28.8 
L 54 28.8 
z
" style="fill:#ffffff;"/>
   </g>
   <g id="PolyCollection_1">
    <defs>
     <path d="M 54 -169.92 
L 54 -169.92 
L 57.348 -238.453243 
L 60.696 -146.960133 
L 64.044 -140.626234 
L 67.392 -141.920405 
L 70.74 -133.670142 
L 74.088 -151.187784 
L 77.436 -158.721572 
L 80.784 -151.402098 
L 84.132 -156.952291 
L 87.48 -151.30253 
L 90.828 -153.288029 
L 94.176 -148.098143 
L 97.524 -142.145897 
L 100.872 -132.683436 
L 104.22 -144.223009 
L 107.568 -141.865121 
L 110.916 -133.359064 
L 114.264 -117.312411 
L 117.612 -111.886672 
L 120.96 -115.699289 
L 124.308 -120.891291 
L 127.656 -143.057054 
L 131.004 -131.534171 
L 134.352 -128.232818 
L 137.7 -135.824591 
L 141.048 -134.366995 
L 144.396 -125.003394 
L 147.744 -130.041582 
L 151.092 -114.712653 
L 154.44 -128.586387 
L 157.788 -144.908032 
L 161.136 -149.463743 
L 164.484 -139.501679 
L 167.832 -142.52845 
L 171.18 -140.82842 
L 174.528 -131.843585 
L 177.876 -141.315811 
L 181.224 -152.431872 
L 184.572 -157.233924 
L 187.92 -137.717994 
L 191.268 -138.774776 
L 194.616 -132.083013 
L 197.964 -119.396373 
L 201.312 -103.357621 
L 204.66 -96.251286 
L 208.008 -117.660422 
L 211.356 -113.215492 
L 214.704 -101.665918 
L 218.052 -87.787147 
L 221.4 -108.290256 
L 224.748 -127.525771 
L 228.096 -118.201987 
L 231.444 -113.38787 
L 234.792 -129.658134 
L 238.14 -140.658137 
L 241.488 -135.533491 
L 244.836 -152.29028 
L 248.184 -148.552525 
L 251.532 -143.998376 
L 254.88 -147.053389 
L 258.228 -135.230551 
L 261.576 -126.370349 
L 264.924 -136.933287 
L 268.272 -147.815363 
L 271.62 -153.526345 
L 274.968 -156.66792 
L 278.316 -151.471312 
L 281.664 -143.849474 
L 285.012 -159.435475 
L 288.36 -173.852105 
L 291.708 -181.298828 
L 295.056 -157.371911 
L 298.404 -185.218603 
L 301.752 -198.072844 
L 305.1 -182.551428 
L 308.448 -182.911006 
L 311.796 -190.237576 
L 315.144 -187.664281 
L 318.492 -199.244381 
L 321.84 -192.885777 
L 325.188 -183.878752 
L 328.536 -180.589546 
L 331.884 -162.308967 
L 335.232 -156.809931 
L 338.58 -141.535829 
L 341.928 -160.562559 
L 345.276 -167.708008 
L 348.624 -162.657856 
L 351.972 -171.741506 
L 355.32 -173.361702 
L 358.668 -162.602741 
L 362.016 -183.051001 
L 365.364 -165.488496 
L 368.712 -170.246058 
L 372.06 -167.331648 
L 375.408 -184.13766 
L 378.756 -205.42238 
L 382.104 -193.321663 
L 385.452 -201.934304 
L 385.452 -170.682123 
L 385.452 -170.682123 
L 382.104 -160.90625 
L 378.756 -173.538685 
L 375.408 -153.258502 
L 372.06 -136.440511 
L 368.712 -139.828375 
L 365.364 -134.746688 
L 362.016 -151.936167 
L 358.668 -131.707445 
L 355.32 -142.28724 
L 351.972 -140.586999 
L 348.624 -131.787376 
L 345.276 -136.831062 
L 341.928 -129.33405 
L 338.58 -110.388662 
L 335.232 -125.751615 
L 331.884 -130.91412 
L 328.536 -148.543526 
L 325.188 -152.060968 
L 321.84 -159.526097 
L 318.492 -166.234861 
L 315.144 -153.405656 
L 311.796 -157.165201 
L 308.448 -150.104826 
L 305.1 -147.638296 
L 301.752 -163.089522 
L 298.404 -151.126112 
L 295.056 -124.624402 
L 291.708 -146.939022 
L 288.36 -141.031762 
L 285.012 -127.633257 
L 281.664 -112.205658 
L 278.316 -119.476365 
L 274.968 -125.29519 
L 271.62 -122.007846 
L 268.272 -116.358 
L 264.924 -105.572299 
L 261.576 -94.55002 
L 258.228 -103.256253 
L 254.88 -114.623097 
L 251.532 -112.072456 
L 248.184 -115.758473 
L 244.836 -119.700596 
L 241.488 -103.046106 
L 238.14 -108.682774 
L 234.792 -97.395375 
L 231.444 -80.816163 
L 228.096 -86.370637 
L 224.748 -94.902269 
L 221.4 -74.425677 
L 218.052 -52.752351 
L 214.704 -67.75058 
L 211.356 -79.629013 
L 208.008 -83.516729 
L 204.66 -56.351951 
L 201.312 -68.50776 
L 197.964 -87.2914 
L 194.616 -100.604048 
L 191.268 -107.174769 
L 187.92 -105.117803 
L 184.572 -124.261867 
L 181.224 -120.302114 
L 177.876 -109.744229 
L 174.528 -99.534349 
L 171.18 -108.189793 
L 167.832 -110.914768 
L 164.484 -107.514634 
L 161.136 -116.817373 
L 157.788 -113.146794 
L 154.44 -97.704435 
L 151.092 -82.573184 
L 147.744 -98.180376 
L 144.396 -93.258192 
L 141.048 -102.844605 
L 137.7 -103.570694 
L 134.352 -95.064093 
L 131.004 -99.734334 
L 127.656 -109.382377 
L 124.308 -88.54531 
L 120.96 -79.051686 
L 117.612 -74.471847 
L 114.264 -77.950838 
L 110.916 -100.287747 
L 107.568 -106.359431 
L 104.22 -107.990024 
L 100.872 -98.496063 
L 97.524 -101.942786 
L 94.176 -101.640597 
L 90.828 -113.969248 
L 87.48 -108.158112 
L 84.132 -117.551571 
L 80.784 -110.287132 
L 77.436 -119.884039 
L 74.088 -113.413049 
L 70.74 -98.487211 
L 67.392 -92.040209 
L 64.044 -140.587699 
L 60.696 -141.63345 
L 57.348 -73.986014 
L 54 -169.92 
z
" id="maf9b63ca9e" style="stroke:#86b5f4;stroke-opacity:0.5;"/>
    </defs>
    <g clip-path="url(#p00b0f2f4e1)">
     <use style="fill:#008000;fill-opacity:0.5;stroke:#86b5f4;stroke-opacity:0.5;" x="0.0" xlink:href="#maf9b63ca9e" y="288.0"/>
    </g>
   </g>
   <g id="line2d_1">
    <path clip-path="url(#p00b0f2f4e1)" d="M 54 131.780804 
L 57.348 139.448675 
L 60.696 144.844105 
L 64.044 162.693129 
L 67.392 167.110115 
L 70.74 154.466702 
L 74.088 144.268131 
L 77.436 159.708098 
L 80.784 147.92498 
L 84.132 164.140168 
L 87.48 154.68362 
L 90.828 172.013317 
L 94.176 172.759195 
L 97.524 168.739442 
L 100.872 180.037153 
L 104.22 174.931337 
L 107.568 169.387301 
L 110.916 186.635388 
L 114.264 197.572624 
L 117.612 200.665484 
L 120.96 188.401007 
L 124.308 172.011462 
L 127.656 167.687621 
L 131.004 183.763975 
L 134.352 166.931285 
L 137.7 167.850039 
L 141.048 170.412752 
L 144.396 185.548619 
L 147.744 177.817359 
L 151.092 179.493794 
L 154.44 163.277044 
L 157.788 145.543054 
L 161.136 163.210012 
L 164.484 162.972494 
L 167.832 150.266329 
L 171.18 159.885709 
L 174.528 164.806311 
L 177.876 152.850478 
L 181.224 139.231821 
L 184.572 155.148199 
L 187.92 165.58972 
L 191.268 164.45417 
L 194.616 181.623284 
L 197.964 198.917701 
L 201.312 216.624308 
L 204.66 198.905226 
L 208.008 182.293861 
L 211.356 194.684971 
L 214.704 206.678943 
L 218.052 209.208692 
L 221.4 191.793058 
L 224.748 183.211012 
L 228.096 197.746335 
L 231.444 184.323003 
L 234.792 166.873424 
L 238.14 153.919696 
L 241.488 159.625595 
L 244.836 142.317279 
L 248.184 155.012989 
L 251.532 168.545727 
L 254.88 155.46335 
L 258.228 164.810392 
L 261.576 171.820636 
L 264.924 158.094715 
L 268.272 148.748349 
L 271.62 149.25688 
L 274.968 137.246609 
L 278.316 144.955126 
L 281.664 148.705455 
L 285.012 133.566391 
L 288.36 119.365785 
L 291.708 130.553209 
L 295.056 130.730723 
L 298.404 118.833102 
L 301.752 109.933718 
L 305.1 121.957463 
L 308.448 116.59254 
L 311.796 105.670031 
L 315.144 116.61331 
L 318.492 104.006799 
L 321.84 121.737167 
L 325.188 114.15736 
L 328.536 131.275645 
L 331.884 146.77598 
L 335.232 148.879566 
L 338.58 153.931596 
L 341.928 138.124759 
L 345.276 130.822634 
L 348.624 146.480901 
L 351.972 141.16703 
L 355.32 127.148326 
L 358.668 133.571957 
L 362.016 126.337997 
L 365.364 138.802046 
L 368.712 122.16669 
L 372.06 127.386057 
L 375.408 109.698064 
L 378.756 97.805134 
L 382.104 107.096484 
L 385.452 90.872115 
" style="fill:none;stroke:#0000ff;stroke-linecap:square;"/>
   </g>
   <g id="line2d_2">
    <path clip-path="url(#p00b0f2f4e1)" d="M 54 118.08 
L 57.348 131.780371 
L 60.696 143.703209 
L 64.044 147.393033 
L 67.392 171.019693 
L 70.74 171.921324 
L 74.088 155.699584 
L 77.436 148.697195 
L 80.784 157.155385 
L 84.132 150.748069 
L 87.48 158.269679 
L 90.828 154.371362 
L 94.176 163.13063 
L 97.524 165.955659 
L 100.872 172.410251 
L 104.22 161.893483 
L 107.568 163.887724 
L 110.916 171.176595 
L 114.264 190.368375 
L 117.612 194.820741 
L 120.96 190.624513 
L 124.308 183.281699 
L 127.656 161.780285 
L 131.004 172.365748 
L 134.352 176.351545 
L 137.7 168.302358 
L 141.048 169.3942 
L 144.396 178.869207 
L 147.744 173.889021 
L 151.092 189.357082 
L 154.44 174.854589 
L 157.788 158.972587 
L 161.136 154.859442 
L 164.484 164.491843 
L 167.832 161.278391 
L 171.18 163.490894 
L 174.528 172.311033 
L 177.876 162.46998 
L 181.224 151.633007 
L 184.572 147.252105 
L 187.92 166.582101 
L 191.268 165.025228 
L 194.616 171.656469 
L 197.964 184.656113 
L 201.312 202.067309 
L 204.66 211.698382 
L 208.008 187.411425 
L 211.356 191.577748 
L 214.704 203.291751 
L 218.052 217.730251 
L 221.4 196.642034 
L 224.748 176.78598 
L 228.096 185.713688 
L 231.444 190.897984 
L 234.792 174.473246 
L 238.14 163.329545 
L 241.488 168.710202 
L 244.836 152.004562 
L 248.184 155.844501 
L 251.532 159.964584 
L 254.88 157.161757 
L 258.228 168.756598 
L 261.576 177.539815 
L 264.924 166.747207 
L 268.272 155.913319 
L 271.62 150.232904 
L 274.968 147.018445 
L 278.316 152.526161 
L 281.664 159.972434 
L 285.012 144.465634 
L 288.36 130.558067 
L 291.708 123.881075 
L 295.056 147.001844 
L 298.404 119.827643 
L 301.752 107.418817 
L 305.1 122.905138 
L 308.448 121.492084 
L 311.796 114.298611 
L 315.144 117.465031 
L 318.492 105.260379 
L 321.84 111.794063 
L 325.188 120.03014 
L 328.536 123.433464 
L 331.884 141.388457 
L 335.232 146.719227 
L 338.58 162.037754 
L 341.928 143.051695 
L 345.276 135.730465 
L 348.624 140.777384 
L 351.972 131.835747 
L 355.32 130.175529 
L 358.668 140.844907 
L 362.016 120.506416 
L 365.364 137.882408 
L 368.712 132.962784 
L 372.06 136.113921 
L 375.408 119.301919 
L 378.756 98.519468 
L 382.104 110.886044 
L 385.452 101.691787 
" style="fill:none;stroke:#008000;stroke-linecap:square;"/>
   </g>
   <g id="patch_3">
    <path d="M 54 28.8 
L 388.8 28.8 
" style="fill:none;stroke:#000000;stroke-linecap:square;stroke-linejoin:miter;"/>
   </g>
   <g id="patch_4">
    <path d="M 388.8 252 
L 388.8 28.8 
" style="fill:none;stroke:#000000;stroke-linecap:square;stroke-linejoin:miter;"/>
   </g>
   <g id="patch_5">
    <path d="M 54 252 
L 388.8 252 
" style="fill:none;stroke:#000000;stroke-linecap:square;stroke-linejoin:miter;"/>
   </g>
   <g id="patch_6">
    <path d="M 54 252 
L 54 28.8 
" style="fill:none;stroke:#000000;stroke-linecap:square;stroke-linejoin:miter;"/>
   </g>
   <g id="matplotlib.axis_1">
    <g id="xtick_1">
     <g id="line2d_3">
      <defs>
       <path d="M 0 0 
L 0 -4 
" id="m17621e872c" style="stroke:#000000;stroke-width:0.5;"/>
      </defs>
      <g>
       <use style="stroke:#000000;stroke-width:0.5;" x="54.0" xlink:href="#m17621e872c" y="252.0"/>
      </g>
     </g>
     <g id="line2d_4">
      <defs>
       <path d="M 0 0 
L 0 4 
" id="m2eab2957c1" style="stroke:#000000;stroke-width:0.5;"/>
      </defs>
      <g>
       <use style="stroke:#000000;stroke-width:0.5;" x="54.0" xlink:href="#m2eab2957c1" y="28.8"/>
      </g>
     </g>
     <g id="text_1">
      <!-- 0 -->
      <defs>
       <path d="M 3.609375 32.71875 
Q 3.609375 44.046875 7.03125 52.21875 
Q 10.453125 60.40625 16.109375 64.40625 
Q 20.515625 67.578125 25.203125 67.578125 
Q 32.8125 67.578125 38.875 59.8125 
Q 46.4375 50.203125 46.4375 33.734375 
Q 46.4375 22.21875 43.109375 14.15625 
Q 39.796875 6.109375 34.640625 2.46875 
Q 29.5 -1.171875 24.703125 -1.171875 
Q 15.234375 -1.171875 8.9375 10.015625 
Q 3.609375 19.4375 3.609375 32.71875 
M 13.1875 31.5 
Q 13.1875 17.828125 16.546875 9.1875 
Q 19.34375 1.90625 24.859375 1.90625 
Q 27.484375 1.90625 30.3125 4.265625 
Q 33.15625 6.640625 34.625 12.203125 
Q 36.859375 20.609375 36.859375 35.890625 
Q 36.859375 47.21875 34.515625 54.78125 
Q 32.765625 60.40625 29.984375 62.75 
Q 27.984375 64.359375 25.140625 64.359375 
Q 21.828125 64.359375 19.234375 61.375 
Q 15.71875 57.328125 14.453125 48.625 
Q 13.1875 39.9375 13.1875 31.5 
" id="TimesNewRomanPSMT-30"/>
      </defs>
      <g transform="translate(51.5 262.94375)scale(0.1 -0.1)">
       <use xlink:href="#TimesNewRomanPSMT-30"/>
      </g>
     </g>
    </g>
    <g id="xtick_2">
     <g id="line2d_5">
      <g>
       <use style="stroke:#000000;stroke-width:0.5;" x="120.96" xlink:href="#m17621e872c" y="252.0"/>
      </g>
     </g>
     <g id="line2d_6">
      <g>
       <use style="stroke:#000000;stroke-width:0.5;" x="120.96" xlink:href="#m2eab2957c1" y="28.8"/>
      </g>
     </g>
     <g id="text_2">
      <!-- 20 -->
      <defs>
       <path d="M 45.84375 12.75 
L 41.21875 0 
L 2.15625 0 
L 2.15625 1.8125 
Q 19.390625 17.53125 26.421875 27.484375 
Q 33.453125 37.453125 33.453125 45.703125 
Q 33.453125 52 29.59375 56.046875 
Q 25.734375 60.109375 20.359375 60.109375 
Q 15.484375 60.109375 11.59375 57.25 
Q 7.71875 54.390625 5.859375 48.875 
L 4.046875 48.875 
Q 5.28125 57.90625 10.328125 62.734375 
Q 15.375 67.578125 22.953125 67.578125 
Q 31 67.578125 36.390625 62.40625 
Q 41.796875 57.234375 41.796875 50.203125 
Q 41.796875 45.171875 39.453125 40.140625 
Q 35.84375 32.234375 27.734375 23.390625 
Q 15.578125 10.109375 12.546875 7.375 
L 29.828125 7.375 
Q 35.109375 7.375 37.234375 7.765625 
Q 39.359375 8.15625 41.0625 9.34375 
Q 42.78125 10.546875 44.046875 12.75 
z
" id="TimesNewRomanPSMT-32"/>
      </defs>
      <g transform="translate(115.96 262.94375)scale(0.1 -0.1)">
       <use xlink:href="#TimesNewRomanPSMT-32"/>
       <use x="50.0" xlink:href="#TimesNewRomanPSMT-30"/>
      </g>
     </g>
    </g>
    <g id="xtick_3">
     <g id="line2d_7">
      <g>
       <use style="stroke:#000000;stroke-width:0.5;" x="187.92" xlink:href="#m17621e872c" y="252.0"/>
      </g>
     </g>
     <g id="line2d_8">
      <g>
       <use style="stroke:#000000;stroke-width:0.5;" x="187.92" xlink:href="#m2eab2957c1" y="28.8"/>
      </g>
     </g>
     <g id="text_3">
      <!-- 40 -->
      <defs>
       <path d="M 46.53125 24.421875 
L 46.53125 17.484375 
L 37.640625 17.484375 
L 37.640625 0 
L 29.59375 0 
L 29.59375 17.484375 
L 1.5625 17.484375 
L 1.5625 23.734375 
L 32.28125 67.578125 
L 37.640625 67.578125 
L 37.640625 24.421875 
z
M 29.59375 24.421875 
L 29.59375 57.28125 
L 6.34375 24.421875 
z
" id="TimesNewRomanPSMT-34"/>
      </defs>
      <g transform="translate(182.92 262.94375)scale(0.1 -0.1)">
       <use xlink:href="#TimesNewRomanPSMT-34"/>
       <use x="50.0" xlink:href="#TimesNewRomanPSMT-30"/>
      </g>
     </g>
    </g>
    <g id="xtick_4">
     <g id="line2d_9">
      <g>
       <use style="stroke:#000000;stroke-width:0.5;" x="254.88" xlink:href="#m17621e872c" y="252.0"/>
      </g>
     </g>
     <g id="line2d_10">
      <g>
       <use style="stroke:#000000;stroke-width:0.5;" x="254.88" xlink:href="#m2eab2957c1" y="28.8"/>
      </g>
     </g>
     <g id="text_4">
      <!-- 60 -->
      <defs>
       <path d="M 44.828125 67.578125 
L 44.828125 65.765625 
Q 38.375 65.140625 34.296875 63.203125 
Q 30.21875 61.28125 26.234375 57.328125 
Q 22.265625 53.375 19.65625 48.515625 
Q 17.046875 43.65625 15.28125 36.96875 
Q 22.3125 41.796875 29.390625 41.796875 
Q 36.1875 41.796875 41.15625 36.328125 
Q 46.140625 30.859375 46.140625 22.265625 
Q 46.140625 13.96875 41.109375 7.125 
Q 35.0625 -1.171875 25.09375 -1.171875 
Q 18.3125 -1.171875 13.578125 3.328125 
Q 4.296875 12.0625 4.296875 25.984375 
Q 4.296875 34.859375 7.859375 42.859375 
Q 11.421875 50.875 18.03125 57.078125 
Q 24.65625 63.28125 30.703125 65.421875 
Q 36.765625 67.578125 42 67.578125 
z
M 14.453125 33.40625 
Q 13.578125 26.8125 13.578125 22.75 
Q 13.578125 18.0625 15.3125 12.5625 
Q 17.046875 7.078125 20.453125 3.859375 
Q 22.953125 1.5625 26.515625 1.5625 
Q 30.765625 1.5625 34.109375 5.5625 
Q 37.453125 9.578125 37.453125 17 
Q 37.453125 25.34375 34.125 31.4375 
Q 30.8125 37.546875 24.703125 37.546875 
Q 22.859375 37.546875 20.734375 36.765625 
Q 18.609375 35.984375 14.453125 33.40625 
" id="TimesNewRomanPSMT-36"/>
      </defs>
      <g transform="translate(249.88 262.94375)scale(0.1 -0.1)">
       <use xlink:href="#TimesNewRomanPSMT-36"/>
       <use x="50.0" xlink:href="#TimesNewRomanPSMT-30"/>
      </g>
     </g>
    </g>
    <g id="xtick_5">
     <g id="line2d_11">
      <g>
       <use style="stroke:#000000;stroke-width:0.5;" x="321.84" xlink:href="#m17621e872c" y="252.0"/>
      </g>
     </g>
     <g id="line2d_12">
      <g>
       <use style="stroke:#000000;stroke-width:0.5;" x="321.84" xlink:href="#m2eab2957c1" y="28.8"/>
      </g>
     </g>
     <g id="text_5">
      <!-- 80 -->
      <defs>
       <path d="M 19.1875 33.34375 
Q 11.328125 39.796875 9.046875 43.703125 
Q 6.78125 47.609375 6.78125 51.8125 
Q 6.78125 58.25 11.765625 62.90625 
Q 16.75 67.578125 25 67.578125 
Q 33.015625 67.578125 37.890625 63.234375 
Q 42.78125 58.890625 42.78125 53.328125 
Q 42.78125 49.609375 40.140625 45.75 
Q 37.5 41.890625 29.15625 36.671875 
Q 37.75 30.03125 40.53125 26.21875 
Q 44.234375 21.234375 44.234375 15.71875 
Q 44.234375 8.734375 38.90625 3.78125 
Q 33.59375 -1.171875 24.953125 -1.171875 
Q 15.53125 -1.171875 10.25 4.734375 
Q 6.0625 9.46875 6.0625 15.09375 
Q 6.0625 19.484375 9.015625 23.796875 
Q 11.96875 28.125 19.1875 33.34375 
M 26.859375 38.578125 
Q 32.71875 43.84375 34.28125 46.890625 
Q 35.84375 49.953125 35.84375 53.8125 
Q 35.84375 58.9375 32.953125 61.84375 
Q 30.078125 64.75 25.09375 64.75 
Q 20.125 64.75 17 61.859375 
Q 13.875 58.984375 13.875 55.125 
Q 13.875 52.59375 15.15625 50.046875 
Q 16.453125 47.515625 18.84375 45.21875 
z
M 21.484375 31.5 
Q 17.4375 28.078125 15.484375 24.046875 
Q 13.53125 20.015625 13.53125 15.328125 
Q 13.53125 9.03125 16.96875 5.25 
Q 20.40625 1.46875 25.734375 1.46875 
Q 31 1.46875 34.171875 4.4375 
Q 37.359375 7.421875 37.359375 11.671875 
Q 37.359375 15.1875 35.5 17.96875 
Q 32.03125 23.140625 21.484375 31.5 
" id="TimesNewRomanPSMT-38"/>
      </defs>
      <g transform="translate(316.84 262.94375)scale(0.1 -0.1)">
       <use xlink:href="#TimesNewRomanPSMT-38"/>
       <use x="50.0" xlink:href="#TimesNewRomanPSMT-30"/>
      </g>
     </g>
    </g>
    <g id="xtick_6">
     <g id="line2d_13">
      <g>
       <use style="stroke:#000000;stroke-width:0.5;" x="388.8" xlink:href="#m17621e872c" y="252.0"/>
      </g>
     </g>
     <g id="line2d_14">
      <g>
       <use style="stroke:#000000;stroke-width:0.5;" x="388.8" xlink:href="#m2eab2957c1" y="28.8"/>
      </g>
     </g>
     <g id="text_6">
      <!-- 100 -->
      <defs>
       <path d="M 11.71875 59.71875 
L 27.828125 67.578125 
L 29.4375 67.578125 
L 29.4375 11.671875 
Q 29.4375 6.109375 29.90625 4.734375 
Q 30.375 3.375 31.828125 2.640625 
Q 33.296875 1.90625 37.796875 1.8125 
L 37.796875 0 
L 12.890625 0 
L 12.890625 1.8125 
Q 17.578125 1.90625 18.9375 2.609375 
Q 20.3125 3.328125 20.84375 4.515625 
Q 21.390625 5.71875 21.390625 11.671875 
L 21.390625 47.40625 
Q 21.390625 54.640625 20.90625 56.6875 
Q 20.5625 58.25 19.65625 58.984375 
Q 18.75 59.71875 17.484375 59.71875 
Q 15.671875 59.71875 12.453125 58.203125 
z
" id="TimesNewRomanPSMT-31"/>
      </defs>
      <g transform="translate(381.3 262.94375)scale(0.1 -0.1)">
       <use xlink:href="#TimesNewRomanPSMT-31"/>
       <use x="50.0" xlink:href="#TimesNewRomanPSMT-30"/>
       <use x="100.0" xlink:href="#TimesNewRomanPSMT-30"/>
      </g>
     </g>
    </g>
    <g id="text_7">
     <!-- Time / units -->
     <defs>
      <path d="M 16.15625 36.578125 
Q 24.03125 46.046875 31.15625 46.046875 
Q 34.8125 46.046875 37.453125 44.21875 
Q 40.09375 42.390625 41.65625 38.1875 
Q 42.71875 35.25 42.71875 29.203125 
L 42.71875 10.109375 
Q 42.71875 5.859375 43.40625 4.34375 
Q 43.953125 3.125 45.140625 2.4375 
Q 46.34375 1.765625 49.5625 1.765625 
L 49.5625 0 
L 27.4375 0 
L 27.4375 1.765625 
L 28.375 1.765625 
Q 31.5 1.765625 32.734375 2.703125 
Q 33.984375 3.65625 34.46875 5.515625 
Q 34.671875 6.25 34.671875 10.109375 
L 34.671875 28.421875 
Q 34.671875 34.515625 33.078125 37.28125 
Q 31.5 40.046875 27.734375 40.046875 
Q 21.921875 40.046875 16.15625 33.6875 
L 16.15625 10.109375 
Q 16.15625 5.5625 16.703125 4.5 
Q 17.390625 3.078125 18.578125 2.421875 
Q 19.78125 1.765625 23.4375 1.765625 
L 23.4375 0 
L 1.3125 0 
L 1.3125 1.765625 
L 2.296875 1.765625 
Q 5.71875 1.765625 6.90625 3.484375 
Q 8.109375 5.21875 8.109375 10.109375 
L 8.109375 26.703125 
Q 8.109375 34.765625 7.734375 36.515625 
Q 7.375 38.28125 6.609375 38.90625 
Q 5.859375 39.546875 4.59375 39.546875 
Q 3.21875 39.546875 1.3125 38.8125 
L 0.59375 40.578125 
L 14.0625 46.046875 
L 16.15625 46.046875 
z
" id="TimesNewRomanPSMT-6e"/>
      <path d="M 42.328125 44.734375 
L 42.328125 17.625 
Q 42.328125 9.859375 42.6875 8.125 
Q 43.0625 6.390625 43.859375 5.703125 
Q 44.671875 5.03125 45.75 5.03125 
Q 47.265625 5.03125 49.171875 5.859375 
L 49.859375 4.15625 
L 36.46875 -1.375 
L 34.28125 -1.375 
L 34.28125 8.109375 
Q 28.515625 1.859375 25.484375 0.234375 
Q 22.46875 -1.375 19.09375 -1.375 
Q 15.328125 -1.375 12.5625 0.796875 
Q 9.8125 2.984375 8.734375 6.390625 
Q 7.671875 9.8125 7.671875 16.0625 
L 7.671875 36.03125 
Q 7.671875 39.203125 6.984375 40.421875 
Q 6.296875 41.65625 4.953125 42.3125 
Q 3.609375 42.96875 0.09375 42.921875 
L 0.09375 44.734375 
L 15.765625 44.734375 
L 15.765625 14.796875 
Q 15.765625 8.546875 17.9375 6.59375 
Q 20.125 4.640625 23.1875 4.640625 
Q 25.296875 4.640625 27.953125 5.953125 
Q 30.609375 7.28125 34.28125 10.984375 
L 34.28125 36.328125 
Q 34.28125 40.140625 32.890625 41.484375 
Q 31.5 42.828125 27.09375 42.921875 
L 27.09375 44.734375 
z
" id="TimesNewRomanPSMT-75"/>
      <path d="M 16.40625 36.53125 
Q 21.296875 41.40625 22.171875 42.140625 
Q 24.359375 44 26.890625 45.015625 
Q 29.4375 46.046875 31.9375 46.046875 
Q 36.140625 46.046875 39.15625 43.59375 
Q 42.1875 41.15625 43.21875 36.53125 
Q 48.25 42.390625 51.703125 44.21875 
Q 55.171875 46.046875 58.84375 46.046875 
Q 62.40625 46.046875 65.15625 44.21875 
Q 67.921875 42.390625 69.53125 38.234375 
Q 70.609375 35.40625 70.609375 29.34375 
L 70.609375 10.109375 
Q 70.609375 5.90625 71.234375 4.34375 
Q 71.734375 3.265625 73.046875 2.515625 
Q 74.359375 1.765625 77.34375 1.765625 
L 77.34375 0 
L 55.28125 0 
L 55.28125 1.765625 
L 56.203125 1.765625 
Q 59.078125 1.765625 60.6875 2.875 
Q 61.8125 3.65625 62.3125 5.375 
Q 62.5 6.203125 62.5 10.109375 
L 62.5 29.34375 
Q 62.5 34.8125 61.1875 37.0625 
Q 59.28125 40.1875 55.078125 40.1875 
Q 52.484375 40.1875 49.875 38.890625 
Q 47.265625 37.59375 43.5625 34.078125 
L 43.453125 33.546875 
L 43.5625 31.453125 
L 43.5625 10.109375 
Q 43.5625 5.515625 44.0625 4.390625 
Q 44.578125 3.265625 45.984375 2.515625 
Q 47.40625 1.765625 50.828125 1.765625 
L 50.828125 0 
L 28.21875 0 
L 28.21875 1.765625 
Q 31.9375 1.765625 33.328125 2.640625 
Q 34.71875 3.515625 35.25 5.28125 
Q 35.5 6.109375 35.5 10.109375 
L 35.5 29.34375 
Q 35.5 34.8125 33.890625 37.203125 
Q 31.734375 40.328125 27.875 40.328125 
Q 25.25 40.328125 22.65625 38.921875 
Q 18.609375 36.765625 16.40625 34.078125 
L 16.40625 10.109375 
Q 16.40625 5.71875 17.015625 4.390625 
Q 17.625 3.078125 18.8125 2.421875 
Q 20.015625 1.765625 23.6875 1.765625 
L 23.6875 0 
L 1.5625 0 
L 1.5625 1.765625 
Q 4.640625 1.765625 5.859375 2.421875 
Q 7.078125 3.078125 7.703125 4.515625 
Q 8.34375 5.953125 8.34375 10.109375 
L 8.34375 27.203125 
Q 8.34375 34.578125 7.90625 36.71875 
Q 7.5625 38.328125 6.828125 38.9375 
Q 6.109375 39.546875 4.828125 39.546875 
Q 3.46875 39.546875 1.5625 38.8125 
L 0.828125 40.578125 
L 14.3125 46.046875 
L 16.40625 46.046875 
z
" id="TimesNewRomanPSMT-6d"/>
      <path d="M 57.859375 66.21875 
L 58.59375 50.6875 
L 56.734375 50.6875 
Q 56.203125 54.78125 55.28125 56.546875 
Q 53.765625 59.375 51.25 60.71875 
Q 48.734375 62.0625 44.625 62.0625 
L 35.296875 62.0625 
L 35.296875 11.46875 
Q 35.296875 5.375 36.625 3.859375 
Q 38.484375 1.8125 42.328125 1.8125 
L 44.625 1.8125 
L 44.625 0 
L 16.546875 0 
L 16.546875 1.8125 
L 18.890625 1.8125 
Q 23.09375 1.8125 24.859375 4.34375 
Q 25.921875 5.90625 25.921875 11.46875 
L 25.921875 62.0625 
L 17.96875 62.0625 
Q 13.328125 62.0625 11.375 61.375 
Q 8.84375 60.453125 7.03125 57.8125 
Q 5.21875 55.171875 4.890625 50.6875 
L 3.03125 50.6875 
L 3.8125 66.21875 
z
" id="TimesNewRomanPSMT-54"/>
      <path d="M 16.109375 59.421875 
L 16.109375 44.734375 
L 26.5625 44.734375 
L 26.5625 41.3125 
L 16.109375 41.3125 
L 16.109375 12.3125 
Q 16.109375 7.953125 17.359375 6.4375 
Q 18.609375 4.9375 20.5625 4.9375 
Q 22.171875 4.9375 23.6875 5.9375 
Q 25.203125 6.9375 26.03125 8.890625 
L 27.9375 8.890625 
Q 26.21875 4.109375 23.09375 1.6875 
Q 19.96875 -0.734375 16.65625 -0.734375 
Q 14.40625 -0.734375 12.25 0.515625 
Q 10.109375 1.765625 9.078125 4.078125 
Q 8.0625 6.390625 8.0625 11.234375 
L 8.0625 41.3125 
L 0.984375 41.3125 
L 0.984375 42.921875 
Q 3.65625 44 6.46875 46.5625 
Q 9.28125 49.125 11.46875 52.640625 
Q 12.59375 54.5 14.59375 59.421875 
z
" id="TimesNewRomanPSMT-74"/>
      <path d="M 14.5 69.4375 
Q 16.546875 69.4375 17.984375 67.984375 
Q 19.4375 66.546875 19.4375 64.5 
Q 19.4375 62.453125 17.984375 60.984375 
Q 16.546875 59.515625 14.5 59.515625 
Q 12.453125 59.515625 10.984375 60.984375 
Q 9.515625 62.453125 9.515625 64.5 
Q 9.515625 66.546875 10.953125 67.984375 
Q 12.40625 69.4375 14.5 69.4375 
M 18.5625 46.046875 
L 18.5625 10.109375 
Q 18.5625 5.90625 19.171875 4.515625 
Q 19.78125 3.125 20.96875 2.4375 
Q 22.171875 1.765625 25.34375 1.765625 
L 25.34375 0 
L 3.609375 0 
L 3.609375 1.765625 
Q 6.890625 1.765625 8 2.390625 
Q 9.125 3.03125 9.78125 4.484375 
Q 10.453125 5.953125 10.453125 10.109375 
L 10.453125 27.34375 
Q 10.453125 34.625 10.015625 36.765625 
Q 9.671875 38.328125 8.9375 38.9375 
Q 8.203125 39.546875 6.9375 39.546875 
Q 5.5625 39.546875 3.609375 38.8125 
L 2.9375 40.578125 
L 16.40625 46.046875 
z
" id="TimesNewRomanPSMT-69"/>
      <path d="M 32.03125 46.046875 
L 32.03125 30.8125 
L 30.421875 30.8125 
Q 28.5625 37.984375 25.65625 40.578125 
Q 22.75 43.171875 18.265625 43.171875 
Q 14.84375 43.171875 12.734375 41.359375 
Q 10.640625 39.546875 10.640625 37.359375 
Q 10.640625 34.625 12.203125 32.671875 
Q 13.71875 30.671875 18.359375 28.421875 
L 25.484375 24.953125 
Q 35.40625 20.125 35.40625 12.203125 
Q 35.40625 6.109375 30.78125 2.359375 
Q 26.171875 -1.375 20.453125 -1.375 
Q 16.359375 -1.375 11.078125 0.09375 
Q 9.46875 0.59375 8.453125 0.59375 
Q 7.328125 0.59375 6.6875 -0.6875 
L 5.078125 -0.6875 
L 5.078125 15.28125 
L 6.6875 15.28125 
Q 8.0625 8.453125 11.90625 4.984375 
Q 15.765625 1.515625 20.5625 1.515625 
Q 23.921875 1.515625 26.046875 3.484375 
Q 28.171875 5.46875 28.171875 8.25 
Q 28.171875 11.625 25.796875 13.921875 
Q 23.4375 16.21875 16.359375 19.734375 
Q 9.28125 23.25 7.078125 26.078125 
Q 4.890625 28.859375 4.890625 33.109375 
Q 4.890625 38.625 8.671875 42.328125 
Q 12.453125 46.046875 18.453125 46.046875 
Q 21.09375 46.046875 24.859375 44.921875 
Q 27.34375 44.1875 28.171875 44.1875 
Q 28.953125 44.1875 29.390625 44.53125 
Q 29.828125 44.875 30.421875 46.046875 
z
" id="TimesNewRomanPSMT-73"/>
      <path d="M 10.640625 27.875 
Q 10.59375 17.921875 15.484375 12.25 
Q 20.359375 6.59375 26.953125 6.59375 
Q 31.34375 6.59375 34.59375 9 
Q 37.84375 11.421875 40.046875 17.28125 
L 41.546875 16.3125 
Q 40.53125 9.625 35.59375 4.125 
Q 30.671875 -1.375 23.25 -1.375 
Q 15.1875 -1.375 9.453125 4.90625 
Q 3.71875 11.1875 3.71875 21.78125 
Q 3.71875 33.25 9.59375 39.671875 
Q 15.484375 46.09375 24.359375 46.09375 
Q 31.890625 46.09375 36.71875 41.140625 
Q 41.546875 36.1875 41.546875 27.875 
z
M 10.640625 30.71875 
L 31.34375 30.71875 
Q 31.109375 35.015625 30.328125 36.765625 
Q 29.109375 39.5 26.6875 41.0625 
Q 24.265625 42.625 21.625 42.625 
Q 17.578125 42.625 14.375 39.46875 
Q 11.1875 36.328125 10.640625 30.71875 
" id="TimesNewRomanPSMT-65"/>
      <path d="M 28.03125 69.4375 
L 4.046875 -1.375 
L 0.140625 -1.375 
L 24.125 69.4375 
z
" id="TimesNewRomanPSMT-2f"/>
      <path id="TimesNewRomanPSMT-20"/>
     </defs>
     <g transform="translate(182.74 281.1928125)scale(0.16 -0.16)">
      <use xlink:href="#TimesNewRomanPSMT-54"/>
      <use x="61.037109375" xlink:href="#TimesNewRomanPSMT-69"/>
      <use x="88.8203125" xlink:href="#TimesNewRomanPSMT-6d"/>
      <use x="166.603515625" xlink:href="#TimesNewRomanPSMT-65"/>
      <use x="210.98828125" xlink:href="#TimesNewRomanPSMT-20"/>
      <use x="235.98828125" xlink:href="#TimesNewRomanPSMT-2f"/>
      <use x="263.771484375" xlink:href="#TimesNewRomanPSMT-20"/>
      <use x="288.771484375" xlink:href="#TimesNewRomanPSMT-75"/>
      <use x="338.771484375" xlink:href="#TimesNewRomanPSMT-6e"/>
      <use x="388.771484375" xlink:href="#TimesNewRomanPSMT-69"/>
      <use x="416.5546875" xlink:href="#TimesNewRomanPSMT-74"/>
      <use x="444.337890625" xlink:href="#TimesNewRomanPSMT-73"/>
     </g>
    </g>
   </g>
   <g id="matplotlib.axis_2">
    <g id="ytick_1">
     <g id="line2d_15">
      <defs>
       <path d="M 0 0 
L 4 0 
" id="m685844fcd6" style="stroke:#000000;stroke-width:0.5;"/>
      </defs>
      <g>
       <use style="stroke:#000000;stroke-width:0.5;" x="54.0" xlink:href="#m685844fcd6" y="252.0"/>
      </g>
     </g>
     <g id="text_8">
      <!-- −150 -->
      <defs>
       <path d="M 43.40625 66.21875 
L 39.59375 57.90625 
L 19.671875 57.90625 
L 15.328125 49.03125 
Q 28.265625 47.125 35.84375 39.40625 
Q 42.328125 32.765625 42.328125 23.78125 
Q 42.328125 18.5625 40.203125 14.109375 
Q 38.09375 9.671875 34.859375 6.546875 
Q 31.640625 3.421875 27.6875 1.515625 
Q 22.078125 -1.171875 16.15625 -1.171875 
Q 10.203125 -1.171875 7.484375 0.84375 
Q 4.78125 2.875 4.78125 5.328125 
Q 4.78125 6.6875 5.90625 7.734375 
Q 7.03125 8.796875 8.734375 8.796875 
Q 10.015625 8.796875 10.96875 8.40625 
Q 11.921875 8.015625 14.203125 6.390625 
Q 17.875 3.859375 21.625 3.859375 
Q 27.34375 3.859375 31.65625 8.171875 
Q 35.984375 12.5 35.984375 18.703125 
Q 35.984375 24.703125 32.125 29.90625 
Q 28.265625 35.109375 21.484375 37.9375 
Q 16.15625 40.140625 6.984375 40.484375 
L 19.671875 66.21875 
z
" id="TimesNewRomanPSMT-35"/>
       <path d="M 54.4375 31.25 
L 1.8125 31.25 
L 1.8125 35.25 
L 54.4375 35.25 
z
" id="TimesNewRomanPSMT-2212"/>
      </defs>
      <g transform="translate(29.3609375 254.40234375)scale(0.1 -0.1)">
       <use xlink:href="#TimesNewRomanPSMT-2212"/>
       <use x="56.396484375" xlink:href="#TimesNewRomanPSMT-31"/>
       <use x="106.396484375" xlink:href="#TimesNewRomanPSMT-35"/>
       <use x="156.396484375" xlink:href="#TimesNewRomanPSMT-30"/>
      </g>
     </g>
    </g>
    <g id="ytick_2">
     <g id="line2d_16">
      <g>
       <use style="stroke:#000000;stroke-width:0.5;" x="54.0" xlink:href="#m685844fcd6" y="207.36"/>
      </g>
     </g>
     <g id="text_9">
      <!-- −100 -->
      <g transform="translate(29.3609375 209.76234375)scale(0.1 -0.1)">
       <use xlink:href="#TimesNewRomanPSMT-2212"/>
       <use x="56.396484375" xlink:href="#TimesNewRomanPSMT-31"/>
       <use x="106.396484375" xlink:href="#TimesNewRomanPSMT-30"/>
       <use x="156.396484375" xlink:href="#TimesNewRomanPSMT-30"/>
      </g>
     </g>
    </g>
    <g id="ytick_3">
     <g id="line2d_17">
      <g>
       <use style="stroke:#000000;stroke-width:0.5;" x="54.0" xlink:href="#m685844fcd6" y="162.72"/>
      </g>
     </g>
     <g id="text_10">
      <!-- −50 -->
      <g transform="translate(34.3609375 165.12234375)scale(0.1 -0.1)">
       <use xlink:href="#TimesNewRomanPSMT-2212"/>
       <use x="56.396484375" xlink:href="#TimesNewRomanPSMT-35"/>
       <use x="106.396484375" xlink:href="#TimesNewRomanPSMT-30"/>
      </g>
     </g>
    </g>
    <g id="ytick_4">
     <g id="line2d_18">
      <g>
       <use style="stroke:#000000;stroke-width:0.5;" x="54.0" xlink:href="#m685844fcd6" y="118.08"/>
      </g>
     </g>
     <g id="text_11">
      <!-- 0 -->
      <g transform="translate(45.0 120.48234375)scale(0.1 -0.1)">
       <use xlink:href="#TimesNewRomanPSMT-30"/>
      </g>
     </g>
    </g>
    <g id="ytick_5">
     <g id="line2d_19">
      <g>
       <use style="stroke:#000000;stroke-width:0.5;" x="54.0" xlink:href="#m685844fcd6" y="73.44"/>
      </g>
     </g>
     <g id="text_12">
      <!-- 50 -->
      <g transform="translate(40.0 75.84234375)scale(0.1 -0.1)">
       <use xlink:href="#TimesNewRomanPSMT-35"/>
       <use x="50.0" xlink:href="#TimesNewRomanPSMT-30"/>
      </g>
     </g>
    </g>
    <g id="ytick_6">
     <g id="line2d_20">
      <g>
       <use style="stroke:#000000;stroke-width:0.5;" x="54.0" xlink:href="#m685844fcd6" y="28.8"/>
      </g>
     </g>
     <g id="text_13">
      <!-- 100 -->
      <g transform="translate(35.0 31.20234375)scale(0.1 -0.1)">
       <use xlink:href="#TimesNewRomanPSMT-31"/>
       <use x="50.0" xlink:href="#TimesNewRomanPSMT-30"/>
       <use x="100.0" xlink:href="#TimesNewRomanPSMT-30"/>
      </g>
     </g>
    </g>
    <g id="text_14">
     <!-- State -->
     <defs>
      <path d="M 45.84375 67.71875 
L 45.84375 44.828125 
L 44.046875 44.828125 
Q 43.171875 51.421875 40.890625 55.328125 
Q 38.625 59.234375 34.421875 61.515625 
Q 30.21875 63.8125 25.734375 63.8125 
Q 20.65625 63.8125 17.328125 60.71875 
Q 14.015625 57.625 14.015625 53.65625 
Q 14.015625 50.640625 16.109375 48.140625 
Q 19.140625 44.484375 30.515625 38.375 
Q 39.796875 33.40625 43.1875 30.734375 
Q 46.578125 28.078125 48.40625 24.453125 
Q 50.25 20.84375 50.25 16.890625 
Q 50.25 9.375 44.40625 3.921875 
Q 38.578125 -1.515625 29.390625 -1.515625 
Q 26.515625 -1.515625 23.96875 -1.078125 
Q 22.46875 -0.828125 17.703125 0.703125 
Q 12.9375 2.25 11.671875 2.25 
Q 10.453125 2.25 9.734375 1.515625 
Q 9.03125 0.78125 8.6875 -1.515625 
L 6.890625 -1.515625 
L 6.890625 21.1875 
L 8.6875 21.1875 
Q 9.96875 14.0625 12.109375 10.515625 
Q 14.265625 6.984375 18.671875 4.640625 
Q 23.09375 2.296875 28.375 2.296875 
Q 34.46875 2.296875 38 5.515625 
Q 41.546875 8.734375 41.546875 13.140625 
Q 41.546875 15.578125 40.203125 18.0625 
Q 38.875 20.5625 36.03125 22.703125 
Q 34.125 24.171875 25.625 28.921875 
Q 17.140625 33.6875 13.546875 36.515625 
Q 9.96875 39.359375 8.109375 42.765625 
Q 6.25 46.1875 6.25 50.296875 
Q 6.25 57.421875 11.71875 62.5625 
Q 17.1875 67.71875 25.640625 67.71875 
Q 30.90625 67.71875 36.8125 65.140625 
Q 39.546875 63.921875 40.671875 63.921875 
Q 41.9375 63.921875 42.75 64.671875 
Q 43.5625 65.4375 44.046875 67.71875 
z
" id="TimesNewRomanPSMT-53"/>
      <path d="M 28.46875 6.453125 
Q 21.578125 1.125 19.828125 0.296875 
Q 17.1875 -0.921875 14.203125 -0.921875 
Q 9.578125 -0.921875 6.5625 2.25 
Q 3.5625 5.421875 3.5625 10.59375 
Q 3.5625 13.875 5.03125 16.265625 
Q 7.03125 19.578125 11.984375 22.5 
Q 16.9375 25.4375 28.46875 29.640625 
L 28.46875 31.390625 
Q 28.46875 38.09375 26.34375 40.578125 
Q 24.21875 43.0625 20.171875 43.0625 
Q 17.09375 43.0625 15.28125 41.40625 
Q 13.421875 39.75 13.421875 37.59375 
L 13.53125 34.765625 
Q 13.53125 32.515625 12.375 31.296875 
Q 11.234375 30.078125 9.375 30.078125 
Q 7.5625 30.078125 6.421875 31.34375 
Q 5.28125 32.625 5.28125 34.8125 
Q 5.28125 39.015625 9.578125 42.53125 
Q 13.875 46.046875 21.625 46.046875 
Q 27.59375 46.046875 31.390625 44.046875 
Q 34.28125 42.53125 35.640625 39.3125 
Q 36.53125 37.203125 36.53125 30.71875 
L 36.53125 15.53125 
Q 36.53125 9.125 36.765625 7.6875 
Q 37.015625 6.25 37.578125 5.765625 
Q 38.140625 5.28125 38.875 5.28125 
Q 39.65625 5.28125 40.234375 5.609375 
Q 41.265625 6.25 44.1875 9.1875 
L 44.1875 6.453125 
Q 38.71875 -0.875 33.734375 -0.875 
Q 31.34375 -0.875 29.921875 0.78125 
Q 28.515625 2.4375 28.46875 6.453125 
M 28.46875 9.625 
L 28.46875 26.65625 
Q 21.09375 23.734375 18.953125 22.515625 
Q 15.09375 20.359375 13.421875 18.015625 
Q 11.765625 15.671875 11.765625 12.890625 
Q 11.765625 9.375 13.859375 7.046875 
Q 15.96875 4.734375 18.703125 4.734375 
Q 22.40625 4.734375 28.46875 9.625 
" id="TimesNewRomanPSMT-61"/>
     </defs>
     <g transform="translate(20.9384375 156.39625)rotate(-90.0)scale(0.16 -0.16)">
      <use xlink:href="#TimesNewRomanPSMT-53"/>
      <use x="55.615234375" xlink:href="#TimesNewRomanPSMT-74"/>
      <use x="83.3984375" xlink:href="#TimesNewRomanPSMT-61"/>
      <use x="127.783203125" xlink:href="#TimesNewRomanPSMT-74"/>
      <use x="155.56640625" xlink:href="#TimesNewRomanPSMT-65"/>
     </g>
    </g>
   </g>
   <g id="legend_1">
    <g id="patch_7">
     <path d="M 294.283125 72.33375 
L 382.8 72.33375 
L 382.8 34.8 
L 294.283125 34.8 
z
" style="fill:#ffffff;stroke:#000000;stroke-linejoin:miter;"/>
    </g>
    <g id="line2d_21">
     <path d="M 302.683125 43.8 
L 319.483125 43.8 
" style="fill:none;stroke:#0000ff;stroke-linecap:square;"/>
    </g>
    <g id="line2d_22"/>
    <g id="text_15">
     <!-- Real -->
     <defs>
      <path d="M 67.578125 0 
L 49.90625 0 
L 27.484375 30.953125 
Q 25 30.859375 23.4375 30.859375 
Q 22.796875 30.859375 22.0625 30.875 
Q 21.34375 30.90625 20.5625 30.953125 
L 20.5625 11.71875 
Q 20.5625 5.46875 21.921875 3.953125 
Q 23.78125 1.8125 27.484375 1.8125 
L 30.078125 1.8125 
L 30.078125 0 
L 1.703125 0 
L 1.703125 1.8125 
L 4.203125 1.8125 
Q 8.40625 1.8125 10.203125 4.546875 
Q 11.234375 6.0625 11.234375 11.71875 
L 11.234375 54.5 
Q 11.234375 60.75 9.859375 62.25 
Q 7.953125 64.40625 4.203125 64.40625 
L 1.703125 64.40625 
L 1.703125 66.21875 
L 25.828125 66.21875 
Q 36.375 66.21875 41.375 64.671875 
Q 46.390625 63.140625 49.875 59.015625 
Q 53.375 54.890625 53.375 49.171875 
Q 53.375 43.0625 49.390625 38.5625 
Q 45.40625 34.078125 37.0625 32.234375 
L 50.734375 13.234375 
Q 55.421875 6.6875 58.78125 4.53125 
Q 62.15625 2.390625 67.578125 1.8125 
z
M 20.5625 34.03125 
Q 21.484375 34.03125 22.171875 34 
Q 22.859375 33.984375 23.296875 33.984375 
Q 32.765625 33.984375 37.578125 38.078125 
Q 42.390625 42.1875 42.390625 48.53125 
Q 42.390625 54.734375 38.5 58.609375 
Q 34.625 62.5 28.21875 62.5 
Q 25.390625 62.5 20.5625 61.578125 
z
" id="TimesNewRomanPSMT-52"/>
      <path d="M 18.5 69.4375 
L 18.5 10.109375 
Q 18.5 5.90625 19.109375 4.53125 
Q 19.734375 3.171875 21 2.46875 
Q 22.265625 1.765625 25.734375 1.765625 
L 25.734375 0 
L 3.8125 0 
L 3.8125 1.765625 
Q 6.890625 1.765625 8 2.390625 
Q 9.125 3.03125 9.765625 4.484375 
Q 10.40625 5.953125 10.40625 10.109375 
L 10.40625 50.734375 
Q 10.40625 58.296875 10.0625 60.03125 
Q 9.71875 61.765625 8.953125 62.390625 
Q 8.203125 63.03125 7.03125 63.03125 
Q 5.765625 63.03125 3.8125 62.25 
L 2.984375 63.96875 
L 16.3125 69.4375 
z
" id="TimesNewRomanPSMT-6c"/>
     </defs>
     <g transform="translate(332.683125 48.0)scale(0.12 -0.12)">
      <use xlink:href="#TimesNewRomanPSMT-52"/>
      <use x="66.69921875" xlink:href="#TimesNewRomanPSMT-65"/>
      <use x="111.083984375" xlink:href="#TimesNewRomanPSMT-61"/>
      <use x="155.46875" xlink:href="#TimesNewRomanPSMT-6c"/>
     </g>
    </g>
    <g id="line2d_23">
     <path d="M 302.683125 60.766875 
L 319.483125 60.766875 
" style="fill:none;stroke:#008000;stroke-linecap:square;"/>
    </g>
    <g id="line2d_24"/>
    <g id="text_16">
     <!-- Predicted -->
     <defs>
      <path d="M 34.71875 5.03125 
Q 31.453125 1.609375 28.328125 0.109375 
Q 25.203125 -1.375 21.578125 -1.375 
Q 14.265625 -1.375 8.796875 4.75 
Q 3.328125 10.890625 3.328125 20.515625 
Q 3.328125 30.125 9.375 38.109375 
Q 15.4375 46.09375 24.953125 46.09375 
Q 30.859375 46.09375 34.71875 42.328125 
L 34.71875 50.59375 
Q 34.71875 58.25 34.34375 60 
Q 33.984375 61.765625 33.203125 62.390625 
Q 32.421875 63.03125 31.25 63.03125 
Q 29.984375 63.03125 27.875 62.25 
L 27.25 63.96875 
L 40.578125 69.4375 
L 42.78125 69.4375 
L 42.78125 17.71875 
Q 42.78125 9.859375 43.140625 8.125 
Q 43.5 6.390625 44.3125 5.703125 
Q 45.125 5.03125 46.1875 5.03125 
Q 47.515625 5.03125 49.703125 5.859375 
L 50.25 4.15625 
L 36.96875 -1.375 
L 34.71875 -1.375 
z
M 34.71875 8.453125 
L 34.71875 31.5 
Q 34.421875 34.8125 32.953125 37.546875 
Q 31.5 40.28125 29.078125 41.671875 
Q 26.65625 43.0625 24.359375 43.0625 
Q 20.0625 43.0625 16.703125 39.203125 
Q 12.25 34.125 12.25 24.359375 
Q 12.25 14.5 16.546875 9.25 
Q 20.84375 4 26.125 4 
Q 30.5625 4 34.71875 8.453125 
" id="TimesNewRomanPSMT-64"/>
      <path d="M 20.515625 31 
L 20.515625 11.71875 
Q 20.515625 5.46875 21.875 3.953125 
Q 23.734375 1.8125 27.484375 1.8125 
L 30.03125 1.8125 
L 30.03125 0 
L 1.65625 0 
L 1.65625 1.8125 
L 4.15625 1.8125 
Q 8.34375 1.8125 10.15625 4.546875 
Q 11.140625 6.0625 11.140625 11.71875 
L 11.140625 54.5 
Q 11.140625 60.75 9.8125 62.25 
Q 7.90625 64.40625 4.15625 64.40625 
L 1.65625 64.40625 
L 1.65625 66.21875 
L 25.921875 66.21875 
Q 34.8125 66.21875 39.9375 64.375 
Q 45.0625 62.546875 48.578125 58.203125 
Q 52.09375 53.859375 52.09375 47.90625 
Q 52.09375 39.796875 46.75 34.71875 
Q 41.40625 29.640625 31.640625 29.640625 
Q 29.25 29.640625 26.46875 29.984375 
Q 23.6875 30.328125 20.515625 31 
M 20.515625 33.796875 
Q 23.09375 33.296875 25.09375 33.046875 
Q 27.09375 32.8125 28.515625 32.8125 
Q 33.59375 32.8125 37.28125 36.734375 
Q 40.96875 40.671875 40.96875 46.921875 
Q 40.96875 51.21875 39.203125 54.90625 
Q 37.453125 58.59375 34.21875 60.421875 
Q 31 62.25 26.90625 62.25 
Q 24.421875 62.25 20.515625 61.328125 
z
" id="TimesNewRomanPSMT-50"/>
      <path d="M 41.109375 17 
Q 39.3125 8.15625 34.03125 3.390625 
Q 28.765625 -1.375 22.359375 -1.375 
Q 14.75 -1.375 9.078125 5.015625 
Q 3.421875 11.421875 3.421875 22.3125 
Q 3.421875 32.859375 9.6875 39.453125 
Q 15.96875 46.046875 24.75 46.046875 
Q 31.34375 46.046875 35.59375 42.546875 
Q 39.84375 39.0625 39.84375 35.296875 
Q 39.84375 33.453125 38.640625 32.296875 
Q 37.453125 31.15625 35.296875 31.15625 
Q 32.421875 31.15625 30.953125 33.015625 
Q 30.125 34.03125 29.859375 36.90625 
Q 29.59375 39.796875 27.875 41.3125 
Q 26.171875 42.78125 23.140625 42.78125 
Q 18.265625 42.78125 15.28125 39.15625 
Q 11.328125 34.375 11.328125 26.515625 
Q 11.328125 18.5 15.25 12.375 
Q 19.1875 6.25 25.875 6.25 
Q 30.671875 6.25 34.46875 9.515625 
Q 37.15625 11.765625 39.703125 17.671875 
z
" id="TimesNewRomanPSMT-63"/>
      <path d="M 16.21875 46.046875 
L 16.21875 35.984375 
Q 21.828125 46.046875 27.734375 46.046875 
Q 30.421875 46.046875 32.171875 44.40625 
Q 33.9375 42.78125 33.9375 40.625 
Q 33.9375 38.71875 32.65625 37.390625 
Q 31.390625 36.078125 29.640625 36.078125 
Q 27.9375 36.078125 25.8125 37.765625 
Q 23.6875 39.453125 22.65625 39.453125 
Q 21.78125 39.453125 20.75 38.484375 
Q 18.5625 36.46875 16.21875 31.890625 
L 16.21875 10.453125 
Q 16.21875 6.734375 17.140625 4.828125 
Q 17.78125 3.515625 19.390625 2.640625 
Q 21 1.765625 24.03125 1.765625 
L 24.03125 0 
L 1.125 0 
L 1.125 1.765625 
Q 4.546875 1.765625 6.203125 2.828125 
Q 7.421875 3.609375 7.90625 5.328125 
Q 8.15625 6.15625 8.15625 10.0625 
L 8.15625 27.390625 
Q 8.15625 35.203125 7.828125 36.6875 
Q 7.515625 38.1875 6.65625 38.859375 
Q 5.8125 39.546875 4.546875 39.546875 
Q 3.03125 39.546875 1.125 38.8125 
L 0.640625 40.578125 
L 14.15625 46.046875 
z
" id="TimesNewRomanPSMT-72"/>
     </defs>
     <g transform="translate(332.683125 64.966875)scale(0.12 -0.12)">
      <use xlink:href="#TimesNewRomanPSMT-50"/>
      <use x="55.615234375" xlink:href="#TimesNewRomanPSMT-72"/>
      <use x="88.916015625" xlink:href="#TimesNewRomanPSMT-65"/>
      <use x="133.30078125" xlink:href="#TimesNewRomanPSMT-64"/>
      <use x="183.30078125" xlink:href="#TimesNewRomanPSMT-69"/>
      <use x="211.083984375" xlink:href="#TimesNewRomanPSMT-63"/>
      <use x="255.46875" xlink:href="#TimesNewRomanPSMT-74"/>
      <use x="283.251953125" xlink:href="#TimesNewRomanPSMT-65"/>
      <use x="327.63671875" xlink:href="#TimesNewRomanPSMT-64"/>
     </g>
    </g>
   </g>
  </g>
  <g id="axes_2">
   <g id="line2d_25">
    <path clip-path="url(#p00b0f2f4e1)" d="M 54 210.835355 
L 57.348 251.088791 
L 60.696 88.12447 
L 64.044 241.299954 
L 67.392 38.72168 
L 70.74 160.519473 
L 74.088 167.12657 
L 77.436 192.355919 
L 80.784 126.448148 
L 84.132 242.997549 
L 87.48 34.119052 
L 90.828 187.099357 
L 94.176 246.57504 
L 97.524 211.278652 
L 100.872 133.00244 
L 104.22 230.826904 
L 107.568 84.70728 
L 110.916 215.666834 
L 114.264 228.085755 
L 117.612 248.538995 
L 120.96 163.081533 
L 124.308 227.5708 
L 127.656 161.050464 
L 131.004 189.877119 
L 134.352 251.856776 
L 137.7 251.27374 
L 141.048 220.767814 
L 144.396 241.197023 
L 147.744 183.896528 
L 151.092 158.166299 
L 154.44 125.745265 
L 157.788 203.184461 
L 161.136 250.384001 
L 164.484 167.108713 
L 167.832 242.901269 
L 171.18 212.572876 
L 174.528 187.221479 
L 177.876 144.340522 
L 181.224 208.353395 
L 184.572 251.310582 
L 187.92 251.77171 
L 191.268 182.459377 
L 194.616 109.615866 
L 197.964 103.656161 
L 201.312 137.427289 
L 204.66 233.666207 
L 208.008 245.241182 
L 211.356 243.968339 
L 214.704 201.164872 
L 218.052 235.540149 
L 221.4 223.101426 
L 224.748 150.644288 
L 228.096 221.73681 
L 231.444 211.567306 
L 234.792 190.014355 
L 238.14 194.225244 
L 241.488 186.305375 
L 244.836 251.515981 
L 248.184 200.451493 
L 251.532 249.980659 
L 254.88 241.098524 
L 258.228 229.102227 
L 261.576 199.590718 
L 264.924 216.061948 
L 268.272 251.333121 
L 271.62 185.153574 
L 274.968 211.873033 
L 278.316 163.132939 
L 281.664 168.839229 
L 285.012 164.307376 
L 288.36 220.835845 
L 291.708 66.66359 
L 295.056 251.307578 
L 298.404 247.572408 
L 301.752 251.371298 
L 305.1 235.195052 
L 308.448 199.879988 
L 311.796 251.492167 
L 315.144 250.899906 
L 318.492 182.789858 
L 321.84 227.855773 
L 325.188 208.947383 
L 328.536 231.680916 
L 331.884 248.732845 
L 335.232 206.00019 
L 338.58 235.006622 
L 341.928 235.138157 
L 345.276 229.227465 
L 348.624 191.045109 
L 351.972 245.584819 
L 355.32 214.970565 
L 358.668 228.193344 
L 362.016 251.407949 
L 365.364 170.405838 
L 368.712 198.67367 
L 372.06 187.43204 
L 375.408 251.642787 
L 378.756 241.946822 
L 382.104 170.049044 
" style="fill:none;stroke:#ff0000;stroke-linecap:square;"/>
   </g>
   <g id="patch_8">
    <path d="M 54 28.8 
L 388.8 28.8 
" style="fill:none;stroke:#000000;stroke-linecap:square;stroke-linejoin:miter;"/>
   </g>
   <g id="patch_9">
    <path d="M 388.8 252 
L 388.8 28.8 
" style="fill:none;stroke:#000000;stroke-linecap:square;stroke-linejoin:miter;"/>
   </g>
   <g id="patch_10">
    <path d="M 54 252 
L 388.8 252 
" style="fill:none;stroke:#000000;stroke-linecap:square;stroke-linejoin:miter;"/>
   </g>
   <g id="patch_11">
    <path d="M 54 252 
L 54 28.8 
" style="fill:none;stroke:#000000;stroke-linecap:square;stroke-linejoin:miter;"/>
   </g>
   <g id="matplotlib.axis_3">
    <g id="ytick_7">
     <g id="line2d_26">
      <defs>
       <path d="M 0 0 
L -4 0 
" id="m640141d8d7" style="stroke:#000000;stroke-width:0.5;"/>
      </defs>
      <g>
       <use style="stroke:#000000;stroke-width:0.5;" x="388.8" xlink:href="#m640141d8d7" y="252.0"/>
      </g>
     </g>
     <g id="text_17">
      <!-- 0 -->
      <g transform="translate(392.8 254.40234375)scale(0.1 -0.1)">
       <use xlink:href="#TimesNewRomanPSMT-30"/>
      </g>
     </g>
    </g>
    <g id="ytick_8">
     <g id="line2d_27">
      <g>
       <use style="stroke:#000000;stroke-width:0.5;" x="388.8" xlink:href="#m640141d8d7" y="224.1"/>
      </g>
     </g>
     <g id="text_18">
      <!-- 50 -->
      <g transform="translate(392.8 226.50234375)scale(0.1 -0.1)">
       <use xlink:href="#TimesNewRomanPSMT-35"/>
       <use x="50.0" xlink:href="#TimesNewRomanPSMT-30"/>
      </g>
     </g>
    </g>
    <g id="ytick_9">
     <g id="line2d_28">
      <g>
       <use style="stroke:#000000;stroke-width:0.5;" x="388.8" xlink:href="#m640141d8d7" y="196.2"/>
      </g>
     </g>
     <g id="text_19">
      <!-- 100 -->
      <g transform="translate(392.8 198.60234375)scale(0.1 -0.1)">
       <use xlink:href="#TimesNewRomanPSMT-31"/>
       <use x="50.0" xlink:href="#TimesNewRomanPSMT-30"/>
       <use x="100.0" xlink:href="#TimesNewRomanPSMT-30"/>
      </g>
     </g>
    </g>
    <g id="ytick_10">
     <g id="line2d_29">
      <g>
       <use style="stroke:#000000;stroke-width:0.5;" x="388.8" xlink:href="#m640141d8d7" y="168.3"/>
      </g>
     </g>
     <g id="text_20">
      <!-- 150 -->
      <g transform="translate(392.8 170.70234375)scale(0.1 -0.1)">
       <use xlink:href="#TimesNewRomanPSMT-31"/>
       <use x="50.0" xlink:href="#TimesNewRomanPSMT-35"/>
       <use x="100.0" xlink:href="#TimesNewRomanPSMT-30"/>
      </g>
     </g>
    </g>
    <g id="ytick_11">
     <g id="line2d_30">
      <g>
       <use style="stroke:#000000;stroke-width:0.5;" x="388.8" xlink:href="#m640141d8d7" y="140.4"/>
      </g>
     </g>
     <g id="text_21">
      <!-- 200 -->
      <g transform="translate(392.8 142.80234375)scale(0.1 -0.1)">
       <use xlink:href="#TimesNewRomanPSMT-32"/>
       <use x="50.0" xlink:href="#TimesNewRomanPSMT-30"/>
       <use x="100.0" xlink:href="#TimesNewRomanPSMT-30"/>
      </g>
     </g>
    </g>
    <g id="ytick_12">
     <g id="line2d_31">
      <g>
       <use style="stroke:#000000;stroke-width:0.5;" x="388.8" xlink:href="#m640141d8d7" y="112.5"/>
      </g>
     </g>
     <g id="text_22">
      <!-- 250 -->
      <g transform="translate(392.8 114.90234375)scale(0.1 -0.1)">
       <use xlink:href="#TimesNewRomanPSMT-32"/>
       <use x="50.0" xlink:href="#TimesNewRomanPSMT-35"/>
       <use x="100.0" xlink:href="#TimesNewRomanPSMT-30"/>
      </g>
     </g>
    </g>
    <g id="ytick_13">
     <g id="line2d_32">
      <g>
       <use style="stroke:#000000;stroke-width:0.5;" x="388.8" xlink:href="#m640141d8d7" y="84.6"/>
      </g>
     </g>
     <g id="text_23">
      <!-- 300 -->
      <defs>
       <path d="M 5.078125 53.609375 
Q 7.90625 60.296875 12.21875 63.9375 
Q 16.546875 67.578125 23 67.578125 
Q 30.953125 67.578125 35.203125 62.40625 
Q 38.421875 58.546875 38.421875 54.15625 
Q 38.421875 46.921875 29.34375 39.203125 
Q 35.453125 36.8125 38.578125 32.375 
Q 41.703125 27.9375 41.703125 21.921875 
Q 41.703125 13.328125 36.234375 7.03125 
Q 29.109375 -1.171875 15.578125 -1.171875 
Q 8.890625 -1.171875 6.46875 0.484375 
Q 4.046875 2.15625 4.046875 4.046875 
Q 4.046875 5.46875 5.1875 6.546875 
Q 6.34375 7.625 7.953125 7.625 
Q 9.1875 7.625 10.453125 7.234375 
Q 11.28125 6.984375 14.203125 5.4375 
Q 17.140625 3.90625 18.265625 3.609375 
Q 20.0625 3.078125 22.125 3.078125 
Q 27.09375 3.078125 30.78125 6.9375 
Q 34.46875 10.796875 34.46875 16.0625 
Q 34.46875 19.921875 32.765625 23.578125 
Q 31.5 26.3125 29.984375 27.734375 
Q 27.875 29.6875 24.21875 31.265625 
Q 20.5625 32.859375 16.75 32.859375 
L 15.1875 32.859375 
L 15.1875 34.328125 
Q 19.046875 34.8125 22.921875 37.109375 
Q 26.8125 39.40625 28.5625 42.625 
Q 30.328125 45.84375 30.328125 49.703125 
Q 30.328125 54.734375 27.171875 57.828125 
Q 24.03125 60.9375 19.34375 60.9375 
Q 11.765625 60.9375 6.6875 52.828125 
z
" id="TimesNewRomanPSMT-33"/>
      </defs>
      <g transform="translate(392.8 87.00234375)scale(0.1 -0.1)">
       <use xlink:href="#TimesNewRomanPSMT-33"/>
       <use x="50.0" xlink:href="#TimesNewRomanPSMT-30"/>
       <use x="100.0" xlink:href="#TimesNewRomanPSMT-30"/>
      </g>
     </g>
    </g>
    <g id="ytick_14">
     <g id="line2d_33">
      <g>
       <use style="stroke:#000000;stroke-width:0.5;" x="388.8" xlink:href="#m640141d8d7" y="56.7"/>
      </g>
     </g>
     <g id="text_24">
      <!-- 350 -->
      <g transform="translate(392.8 59.10234375)scale(0.1 -0.1)">
       <use xlink:href="#TimesNewRomanPSMT-33"/>
       <use x="50.0" xlink:href="#TimesNewRomanPSMT-35"/>
       <use x="100.0" xlink:href="#TimesNewRomanPSMT-30"/>
      </g>
     </g>
    </g>
    <g id="ytick_15">
     <g id="line2d_34">
      <g>
       <use style="stroke:#000000;stroke-width:0.5;" x="388.8" xlink:href="#m640141d8d7" y="28.8"/>
      </g>
     </g>
     <g id="text_25">
      <!-- 400 -->
      <g transform="translate(392.8 31.20234375)scale(0.1 -0.1)">
       <use xlink:href="#TimesNewRomanPSMT-34"/>
       <use x="50.0" xlink:href="#TimesNewRomanPSMT-30"/>
       <use x="100.0" xlink:href="#TimesNewRomanPSMT-30"/>
      </g>
     </g>
    </g>
    <g id="text_26">
     <!-- Square Absolute Error -->
     <defs>
      <path d="M 42.71875 46.046875 
L 42.71875 -11.46875 
Q 42.71875 -15.765625 43.296875 -16.984375 
Q 43.890625 -18.21875 45.140625 -18.890625 
Q 46.390625 -19.578125 50 -19.578125 
L 50 -21.390625 
L 27.4375 -21.390625 
L 27.4375 -19.578125 
L 28.375 -19.578125 
Q 31.109375 -19.578125 32.515625 -18.796875 
Q 33.5 -18.265625 34.078125 -16.875 
Q 34.671875 -15.484375 34.671875 -11.46875 
L 34.671875 7.765625 
Q 30.21875 2.484375 26.890625 0.546875 
Q 23.578125 -1.375 20.015625 -1.375 
Q 13.53125 -1.375 8.421875 4.53125 
Q 3.328125 10.453125 3.328125 20.359375 
Q 3.328125 31.734375 10.0625 38.890625 
Q 16.796875 46.046875 26.3125 46.046875 
Q 29.109375 46.046875 31.453125 45.265625 
Q 33.796875 44.484375 35.640625 42.921875 
Q 38.484375 44.28125 41.0625 46.046875 
z
M 34.671875 10.84375 
L 34.671875 31.84375 
Q 34.671875 35.5 33.71875 37.59375 
Q 32.765625 39.703125 30.3125 41.15625 
Q 27.875 42.625 24.8125 42.625 
Q 19.34375 42.625 15.4375 37.984375 
Q 11.53125 33.34375 11.53125 23.921875 
Q 11.53125 14.890625 15.5 10.203125 
Q 19.484375 5.515625 25.09375 5.515625 
Q 27.984375 5.515625 30.21875 6.765625 
Q 32.46875 8.015625 34.671875 10.84375 
" id="TimesNewRomanPSMT-71"/>
      <path d="M 45.75 22.171875 
L 20.125 22.171875 
L 15.625 11.71875 
Q 13.96875 7.859375 13.96875 5.953125 
Q 13.96875 4.4375 15.40625 3.296875 
Q 16.84375 2.15625 21.625 1.8125 
L 21.625 0 
L 0.78125 0 
L 0.78125 1.8125 
Q 4.9375 2.546875 6.15625 3.71875 
Q 8.640625 6.0625 11.671875 13.234375 
L 34.96875 67.71875 
L 36.671875 67.71875 
L 59.71875 12.640625 
Q 62.5 6 64.765625 4.015625 
Q 67.046875 2.046875 71.09375 1.8125 
L 71.09375 0 
L 44.96875 0 
L 44.96875 1.8125 
Q 48.921875 2 50.3125 3.125 
Q 51.703125 4.25 51.703125 5.859375 
Q 51.703125 8.015625 49.75 12.640625 
z
M 44.390625 25.78125 
L 33.15625 52.546875 
L 21.625 25.78125 
z
" id="TimesNewRomanPSMT-41"/>
      <path d="M 25 46.046875 
Q 35.15625 46.046875 41.3125 38.328125 
Q 46.53125 31.734375 46.53125 23.1875 
Q 46.53125 17.1875 43.640625 11.03125 
Q 40.765625 4.890625 35.71875 1.75 
Q 30.671875 -1.375 24.46875 -1.375 
Q 14.359375 -1.375 8.40625 6.6875 
Q 3.375 13.484375 3.375 21.921875 
Q 3.375 28.078125 6.421875 34.15625 
Q 9.46875 40.234375 14.453125 43.140625 
Q 19.4375 46.046875 25 46.046875 
M 23.484375 42.875 
Q 20.90625 42.875 18.28125 41.328125 
Q 15.671875 39.796875 14.0625 35.9375 
Q 12.453125 32.078125 12.453125 26.03125 
Q 12.453125 16.265625 16.328125 9.171875 
Q 20.21875 2.09375 26.5625 2.09375 
Q 31.296875 2.09375 34.375 6 
Q 37.453125 9.90625 37.453125 19.4375 
Q 37.453125 31.34375 32.328125 38.1875 
Q 28.859375 42.875 23.484375 42.875 
" id="TimesNewRomanPSMT-6f"/>
      <path d="M 15.375 37.015625 
Q 21.875 46.046875 29.390625 46.046875 
Q 36.28125 46.046875 41.40625 40.15625 
Q 46.53125 34.28125 46.53125 24.078125 
Q 46.53125 12.15625 38.625 4.890625 
Q 31.84375 -1.375 23.484375 -1.375 
Q 19.578125 -1.375 15.546875 0.046875 
Q 11.53125 1.46875 7.328125 4.296875 
L 7.328125 50.640625 
Q 7.328125 58.25 6.953125 60 
Q 6.59375 61.765625 5.8125 62.390625 
Q 5.03125 63.03125 3.859375 63.03125 
Q 2.484375 63.03125 0.4375 62.25 
L -0.25 63.96875 
L 13.1875 69.4375 
L 15.375 69.4375 
z
M 15.375 33.890625 
L 15.375 7.125 
Q 17.875 4.6875 20.53125 3.4375 
Q 23.1875 2.203125 25.984375 2.203125 
Q 30.421875 2.203125 34.25 7.078125 
Q 38.09375 11.96875 38.09375 21.296875 
Q 38.09375 29.890625 34.25 34.5 
Q 30.421875 39.109375 25.53125 39.109375 
Q 22.953125 39.109375 20.359375 37.796875 
Q 18.40625 36.8125 15.375 33.890625 
" id="TimesNewRomanPSMT-62"/>
      <path d="M 20.90625 62.59375 
L 20.90625 36.421875 
L 35.453125 36.421875 
Q 41.109375 36.421875 43.015625 38.140625 
Q 45.5625 40.375 45.84375 46.046875 
L 47.65625 46.046875 
L 47.65625 23 
L 45.84375 23 
Q 45.171875 27.828125 44.484375 29.203125 
Q 43.609375 30.90625 41.59375 31.875 
Q 39.59375 32.859375 35.453125 32.859375 
L 20.90625 32.859375 
L 20.90625 11.03125 
Q 20.90625 6.640625 21.296875 5.6875 
Q 21.6875 4.734375 22.65625 4.171875 
Q 23.640625 3.609375 26.375 3.609375 
L 37.59375 3.609375 
Q 43.21875 3.609375 45.75 4.390625 
Q 48.296875 5.171875 50.640625 7.46875 
Q 53.65625 10.5 56.84375 16.609375 
L 58.796875 16.609375 
L 53.078125 0 
L 2.046875 0 
L 2.046875 1.8125 
L 4.390625 1.8125 
Q 6.734375 1.8125 8.84375 2.9375 
Q 10.40625 3.71875 10.96875 5.28125 
Q 11.53125 6.84375 11.53125 11.671875 
L 11.53125 54.6875 
Q 11.53125 60.984375 10.25 62.453125 
Q 8.5 64.40625 4.390625 64.40625 
L 2.046875 64.40625 
L 2.046875 66.21875 
L 53.078125 66.21875 
L 53.8125 51.703125 
L 51.90625 51.703125 
Q 50.875 56.9375 49.625 58.890625 
Q 48.390625 60.84375 45.953125 61.859375 
Q 44 62.59375 39.0625 62.59375 
z
" id="TimesNewRomanPSMT-45"/>
     </defs>
     <g transform="translate(423.91 212.37375)rotate(-90.0)scale(0.16 -0.16)">
      <use xlink:href="#TimesNewRomanPSMT-53"/>
      <use x="55.615234375" xlink:href="#TimesNewRomanPSMT-71"/>
      <use x="105.615234375" xlink:href="#TimesNewRomanPSMT-75"/>
      <use x="155.615234375" xlink:href="#TimesNewRomanPSMT-61"/>
      <use x="200.0" xlink:href="#TimesNewRomanPSMT-72"/>
      <use x="233.30078125" xlink:href="#TimesNewRomanPSMT-65"/>
      <use x="277.685546875" xlink:href="#TimesNewRomanPSMT-20"/>
      <use x="302.607421875" xlink:href="#TimesNewRomanPSMT-41"/>
      <use x="374.82421875" xlink:href="#TimesNewRomanPSMT-62"/>
      <use x="424.82421875" xlink:href="#TimesNewRomanPSMT-73"/>
      <use x="463.740234375" xlink:href="#TimesNewRomanPSMT-6f"/>
      <use x="513.740234375" xlink:href="#TimesNewRomanPSMT-6c"/>
      <use x="541.5234375" xlink:href="#TimesNewRomanPSMT-75"/>
      <use x="591.5234375" xlink:href="#TimesNewRomanPSMT-74"/>
      <use x="619.306640625" xlink:href="#TimesNewRomanPSMT-65"/>
      <use x="663.69140625" xlink:href="#TimesNewRomanPSMT-20"/>
      <use x="688.69140625" xlink:href="#TimesNewRomanPSMT-45"/>
      <use x="749.775390625" xlink:href="#TimesNewRomanPSMT-72"/>
      <use x="783.076171875" xlink:href="#TimesNewRomanPSMT-72"/>
      <use x="816.376953125" xlink:href="#TimesNewRomanPSMT-6f"/>
      <use x="866.376953125" xlink:href="#TimesNewRomanPSMT-72"/>
     </g>
    </g>
   </g>
  </g>
 </g>
 <defs>
  <clipPath id="p00b0f2f4e1">
   <rect height="223.2" width="334.8" x="54.0" y="28.8"/>
  </clipPath>
 </defs>
</svg>
