<?xml version="1.0" encoding="utf-8" standalone="no"?>
<!DOCTYPE svg PUBLIC "-//W3C//DTD SVG 1.1//EN"
  "http://www.w3.org/Graphics/SVG/1.1/DTD/svg11.dtd">
<!-- Created with matplotlib (http://matplotlib.org/) -->
<svg height="288pt" version="1.1" viewBox="0 0 432 288" width="432pt" xmlns="http://www.w3.org/2000/svg" xmlns:xlink="http://www.w3.org/1999/xlink">
 <defs>
  <style type="text/css">
*{stroke-linecap:butt;stroke-linejoin:round;stroke-miterlimit:100000;}
  </style>
 </defs>
 <g id="figure_1">
  <g id="patch_1">
   <path d="M 0 288 
L 432 288 
L 432 0 
L 0 0 
z
" style="fill:#ffffff;"/>
  </g>
  <g id="axes_1">
   <g id="patch_2">
    <path d="M 54 252 
L 388.8 252 
L 388.8 28.8 
L 54 28.8 
z
" style="fill:#ffffff;"/>
   </g>
   <g id="line2d_1">
    <path clip-path="url(#p9fd87f4179)" d="M 54 252 
L 54.744 236.4891 
L 55.488 240.587616 
L 56.232 245.388938 
L 56.976 243.576107 
L 57.72 240.505433 
L 58.464 243.932002 
L 59.208 244.844821 
L 59.952 247.74188 
L 60.696 246.119194 
L 61.44 242.450167 
L 62.184 242.174442 
L 62.928 247.215422 
L 63.672 249.326505 
L 64.416 247.559567 
L 65.16 249.962317 
L 65.904 249.348384 
L 66.648 244.437239 
L 68.136 240.861277 
L 68.88 241.633794 
L 69.624 238.458434 
L 70.368 244.020978 
L 71.112 239.60713 
L 71.856 242.349113 
L 72.6 239.127065 
L 73.344 242.113521 
L 74.088 238.146208 
L 74.832 236.804584 
L 75.576 240.042403 
L 76.32 240.790644 
L 77.064 194.226388 
L 77.808 238.900015 
L 78.552 243.275092 
L 79.296 246.673893 
L 80.784 240.676305 
L 81.528 242.401796 
L 82.272 241.292294 
L 83.016 241.013807 
L 83.76 242.473205 
L 84.504 246.85975 
L 85.248 238.465908 
L 85.992 240.643442 
L 86.736 237.551673 
L 87.48 247.406141 
L 88.224 243.240006 
L 88.968 245.279134 
L 89.712 241.442129 
L 90.456 245.326188 
L 91.2 240.570632 
L 91.944 241.746045 
L 92.688 246.438633 
L 93.432 244.318016 
L 94.176 237.751573 
L 94.92 240.615736 
L 95.664 244.361305 
L 96.408 240.113197 
L 97.152 240.479887 
L 97.896 242.865686 
L 98.64 242.249698 
L 99.384 240.544506 
L 100.128 242.077666 
L 100.872 239.456088 
L 101.616 244.110318 
L 102.36 239.942813 
L 103.104 241.160335 
L 103.848 238.874324 
L 104.592 241.392388 
L 105.336 241.652005 
L 106.08 237.969485 
L 106.824 240.198587 
L 107.568 228.576992 
L 108.312 243.183268 
L 109.056 233.921766 
L 109.8 243.187452 
L 110.544 240.948489 
L 111.288 246.300931 
L 112.032 248.849175 
L 112.776 236.393218 
L 113.52 250.777867 
L 114.264 249.147517 
L 115.008 242.560191 
L 115.752 241.632844 
L 116.496 242.845545 
L 117.24 240.310328 
L 117.984 249.484347 
L 118.728 239.732893 
L 119.472 239.136213 
L 120.216 233.377328 
L 120.96 242.81201 
L 121.704 238.539102 
L 122.448 239.206137 
L 123.192 228.510833 
L 123.936 240.906831 
L 124.68 237.984595 
L 125.424 244.610827 
L 126.168 244.831088 
L 126.912 249.72388 
L 127.656 246.373003 
L 128.4 239.586636 
L 129.144 245.521923 
L 129.888 241.189878 
L 130.632 240.239939 
L 131.376 245.367658 
L 132.12 238.072641 
L 132.864 245.888899 
L 133.608 245.4667 
L 134.352 247.284943 
L 135.096 239.305887 
L 135.84 243.235234 
L 136.584 241.19363 
L 137.328 246.379039 
L 138.072 242.352436 
L 138.816 247.917311 
L 139.56 241.720323 
L 140.304 245.604923 
L 141.048 238.702028 
L 141.792 243.178536 
L 142.536 245.357301 
L 143.28 237.770437 
L 144.024 242.5669 
L 144.768 245.444939 
L 145.512 236.861883 
L 146.256 242.976601 
L 147 242.826408 
L 147.744 244.096359 
L 148.488 248.183794 
L 149.232 238.876528 
L 149.976 233.051958 
L 150.72 247.449881 
L 151.464 246.132775 
L 152.208 248.530925 
L 152.952 238.909447 
L 153.696 244.544661 
L 154.44 243.412633 
L 155.184 243.500454 
L 155.928 207.114842 
L 156.672 242.39324 
L 157.416 249.29374 
L 158.16 239.603618 
L 158.904 241.254451 
L 159.648 247.315677 
L 160.392 238.175563 
L 161.136 241.048309 
L 161.88 245.210918 
L 162.624 238.350865 
L 163.368 242.481128 
L 164.112 242.544583 
L 164.856 240.319836 
L 165.6 240.945309 
L 166.344 242.11604 
L 167.088 245.722489 
L 167.832 248.001848 
L 168.576 250.769495 
L 170.064 246.987784 
L 170.808 243.468402 
L 171.552 243.607064 
L 172.296 241.480978 
L 173.04 241.725955 
L 173.784 242.232686 
L 174.528 236.271918 
L 175.272 243.383121 
L 176.016 244.087923 
L 176.76 245.507612 
L 177.504 245.962192 
L 178.248 245.601505 
L 178.992 245.710552 
L 179.736 245.238357 
L 180.48 246.79983 
L 181.224 241.270883 
L 181.968 247.481711 
L 183.456 240.134082 
L 184.2 244.543598 
L 184.944 247.821032 
L 185.688 238.746325 
L 186.432 245.424201 
L 187.176 246.567209 
L 187.92 235.874985 
L 188.664 243.194244 
L 189.408 243.841164 
L 190.152 244.986904 
L 190.896 238.903219 
L 191.64 242.074327 
L 192.384 244.11788 
L 193.128 245.592771 
L 193.872 245.358512 
L 194.616 210.842227 
L 195.36 239.926376 
L 196.104 211.158906 
L 197.592 242.042131 
L 198.336 243.54384 
L 199.08 244.370033 
L 199.824 240.581264 
L 200.568 243.838346 
L 201.312 245.336831 
L 202.056 240.32951 
L 202.8 244.961931 
L 204.288 238.235424 
L 205.032 240.914435 
L 205.776 245.399888 
L 206.52 240.377688 
L 207.264 241.354072 
L 208.752 245.815502 
L 209.496 249.033474 
L 210.24 247.863424 
L 210.984 245.278992 
L 211.728 243.69719 
L 212.472 241.214655 
L 213.216 246.257269 
L 213.96 243.307523 
L 214.704 244.631238 
L 215.448 243.850854 
L 216.192 245.534381 
L 216.936 242.900983 
L 217.68 249.155401 
L 218.424 249.016945 
L 219.912 244.936013 
L 220.656 244.823574 
L 221.4 246.363187 
L 222.144 245.958847 
L 222.888 239.747553 
L 223.632 240.709122 
L 224.376 241.071314 
L 225.12 248.478934 
L 225.864 245.945943 
L 226.608 244.179503 
L 227.352 244.34231 
L 228.096 238.706891 
L 228.84 241.305255 
L 229.584 236.400083 
L 230.328 246.420382 
L 231.072 235.868152 
L 231.816 237.782975 
L 232.56 246.587402 
L 233.304 235.609437 
L 234.048 242.241937 
L 234.792 238.849451 
L 235.536 243.596335 
L 236.28 200.171808 
L 237.024 241.394237 
L 237.768 247.465248 
L 238.512 86.900765 
L 239.256 244.558253 
L 240 231.166432 
L 240.744 246.560097 
L 241.488 245.390684 
L 242.232 240.951895 
L 242.976 245.562306 
L 243.72 247.899803 
L 244.464 247.289101 
L 245.208 249.298407 
L 245.952 246.999111 
L 246.696 248.965547 
L 248.184 246.294425 
L 248.928 243.331314 
L 249.672 244.639658 
L 250.416 246.375903 
L 251.16 242.928839 
L 251.904 247.228271 
L 252.648 244.477458 
L 253.392 244.364131 
L 254.136 244.522596 
L 254.88 244.541196 
L 255.624 241.411258 
L 256.368 246.755193 
L 257.112 243.165287 
L 257.856 247.04693 
L 258.6 247.863375 
L 259.344 240.719076 
L 260.088 242.033601 
L 260.832 51.70756 
L 261.576 243.208383 
L 262.32 242.455967 
L 263.064 245.488733 
L 263.808 246.189748 
L 264.552 244.327775 
L 265.296 243.928645 
L 266.04 244.217364 
L 266.784 243.428887 
L 267.528 240.302501 
L 268.272 241.961093 
L 269.016 242.905198 
L 269.76 250.557392 
L 270.504 247.03481 
L 271.248 238.771492 
L 271.992 245.873804 
L 272.736 243.711953 
L 273.48 247.826427 
L 274.224 240.334959 
L 274.968 244.899267 
L 275.712 247.405911 
L 276.456 244.513526 
L 277.2 243.925414 
L 277.944 245.86882 
L 279.432 246.724454 
L 280.176 246.980129 
L 280.92 249.676956 
L 281.664 249.196761 
L 282.408 244.607129 
L 283.152 247.448402 
L 283.896 247.210006 
L 284.64 245.834909 
L 285.384 240.475463 
L 286.128 240.052138 
L 286.872 247.031371 
L 287.616 248.421212 
L 288.36 244.892029 
L 289.104 245.259986 
L 289.848 241.848496 
L 290.592 243.316539 
L 291.336 249.13058 
L 292.08 246.381822 
L 292.824 246.45702 
L 293.568 244.866311 
L 294.312 247.328419 
L 295.056 248.378336 
L 295.8 243.128116 
L 296.544 246.048161 
L 297.288 245.568741 
L 298.032 244.548901 
L 298.776 246.019905 
L 299.52 246.050415 
L 300.264 246.201838 
L 301.008 238.302262 
L 301.752 235.228905 
L 302.496 246.593483 
L 303.24 245.743939 
L 304.728 246.544145 
L 305.472 244.594684 
L 306.216 238.140856 
L 306.96 244.926227 
L 307.704 244.636502 
L 308.448 244.52821 
L 309.192 248.148917 
L 309.936 247.589354 
L 310.68 247.496137 
L 311.424 247.119662 
L 312.168 247.145436 
L 312.912 219.816466 
L 313.656 248.194201 
L 314.4 248.657297 
L 315.144 248.704806 
L 315.888 247.992864 
L 316.632 214.549319 
L 317.376 248.991583 
L 318.12 244.008116 
L 318.864 243.403614 
L 319.608 245.669634 
L 320.352 248.88973 
L 321.84 245.723696 
L 322.584 246.631402 
L 323.328 246.35439 
L 324.072 242.734008 
L 324.816 246.595544 
L 325.56 245.161957 
L 326.304 245.39191 
L 327.048 242.449102 
L 327.792 246.792797 
L 328.536 242.87911 
L 329.28 245.837123 
L 330.024 247.793376 
L 330.768 149.997145 
L 331.512 240.029354 
L 332.256 239.308301 
L 333 250.241309 
L 333.744 248.519924 
L 334.488 245.115228 
L 335.232 240.518614 
L 335.976 244.835053 
L 336.72 151.80559 
L 337.464 248.332328 
L 338.208 246.284916 
L 338.952 249.075467 
L 339.696 245.475476 
L 340.44 237.409442 
L 341.184 198.392949 
L 341.928 246.770704 
L 342.672 243.10068 
L 343.416 245.485103 
L 344.16 247.271507 
L 344.904 248.72849 
L 345.648 247.95596 
L 346.392 248.942727 
L 347.136 246.919028 
L 347.88 118.515413 
L 348.624 250.061865 
L 349.368 240.932848 
L 350.112 247.841897 
L 350.856 248.819969 
L 351.6 248.004277 
L 352.344 245.257908 
L 353.088 248.264833 
L 353.832 242.487991 
L 354.576 243.861057 
L 355.32 243.404577 
L 355.32 243.404577 
" style="fill:none;stroke:#0000ff;stroke-linecap:square;"/>
   </g>
   <g id="patch_3">
    <path d="M 54 28.8 
L 388.8 28.8 
" style="fill:none;stroke:#000000;stroke-linecap:square;stroke-linejoin:miter;"/>
   </g>
   <g id="patch_4">
    <path d="M 388.8 252 
L 388.8 28.8 
" style="fill:none;stroke:#000000;stroke-linecap:square;stroke-linejoin:miter;"/>
   </g>
   <g id="patch_5">
    <path d="M 54 252 
L 388.8 252 
" style="fill:none;stroke:#000000;stroke-linecap:square;stroke-linejoin:miter;"/>
   </g>
   <g id="patch_6">
    <path d="M 54 252 
L 54 28.8 
" style="fill:none;stroke:#000000;stroke-linecap:square;stroke-linejoin:miter;"/>
   </g>
   <g id="matplotlib.axis_1">
    <g id="xtick_1">
     <g id="line2d_2">
      <defs>
       <path d="M 0 0 
L 0 -4 
" id="m081af9802c" style="stroke:#000000;stroke-width:0.5;"/>
      </defs>
      <g>
       <use style="stroke:#000000;stroke-width:0.5;" x="54.0" xlink:href="#m081af9802c" y="252.0"/>
      </g>
     </g>
     <g id="line2d_3">
      <defs>
       <path d="M 0 0 
L 0 4 
" id="m1eceab7060" style="stroke:#000000;stroke-width:0.5;"/>
      </defs>
      <g>
       <use style="stroke:#000000;stroke-width:0.5;" x="54.0" xlink:href="#m1eceab7060" y="28.8"/>
      </g>
     </g>
     <g id="text_1">
      <!-- 0 -->
      <defs>
       <path d="M 31.78125 66.40625 
Q 24.171875 66.40625 20.328125 58.90625 
Q 16.5 51.421875 16.5 36.375 
Q 16.5 21.390625 20.328125 13.890625 
Q 24.171875 6.390625 31.78125 6.390625 
Q 39.453125 6.390625 43.28125 13.890625 
Q 47.125 21.390625 47.125 36.375 
Q 47.125 51.421875 43.28125 58.90625 
Q 39.453125 66.40625 31.78125 66.40625 
M 31.78125 74.21875 
Q 44.046875 74.21875 50.515625 64.515625 
Q 56.984375 54.828125 56.984375 36.375 
Q 56.984375 17.96875 50.515625 8.265625 
Q 44.046875 -1.421875 31.78125 -1.421875 
Q 19.53125 -1.421875 13.0625 8.265625 
Q 6.59375 17.96875 6.59375 36.375 
Q 6.59375 54.828125 13.0625 64.515625 
Q 19.53125 74.21875 31.78125 74.21875 
" id="BitstreamVeraSans-Roman-30"/>
      </defs>
      <g transform="translate(50.81875 263.5984375)scale(0.1 -0.1)">
       <use xlink:href="#BitstreamVeraSans-Roman-30"/>
      </g>
     </g>
    </g>
    <g id="xtick_2">
     <g id="line2d_4">
      <g>
       <use style="stroke:#000000;stroke-width:0.5;" x="91.2" xlink:href="#m081af9802c" y="252.0"/>
      </g>
     </g>
     <g id="line2d_5">
      <g>
       <use style="stroke:#000000;stroke-width:0.5;" x="91.2" xlink:href="#m1eceab7060" y="28.8"/>
      </g>
     </g>
     <g id="text_2">
      <!-- 50 -->
      <defs>
       <path d="M 10.796875 72.90625 
L 49.515625 72.90625 
L 49.515625 64.59375 
L 19.828125 64.59375 
L 19.828125 46.734375 
Q 21.96875 47.46875 24.109375 47.828125 
Q 26.265625 48.1875 28.421875 48.1875 
Q 40.625 48.1875 47.75 41.5 
Q 54.890625 34.8125 54.890625 23.390625 
Q 54.890625 11.625 47.5625 5.09375 
Q 40.234375 -1.421875 26.90625 -1.421875 
Q 22.3125 -1.421875 17.546875 -0.640625 
Q 12.796875 0.140625 7.71875 1.703125 
L 7.71875 11.625 
Q 12.109375 9.234375 16.796875 8.0625 
Q 21.484375 6.890625 26.703125 6.890625 
Q 35.15625 6.890625 40.078125 11.328125 
Q 45.015625 15.765625 45.015625 23.390625 
Q 45.015625 31 40.078125 35.4375 
Q 35.15625 39.890625 26.703125 39.890625 
Q 22.75 39.890625 18.8125 39.015625 
Q 14.890625 38.140625 10.796875 36.28125 
z
" id="BitstreamVeraSans-Roman-35"/>
      </defs>
      <g transform="translate(84.8375 263.5984375)scale(0.1 -0.1)">
       <use xlink:href="#BitstreamVeraSans-Roman-35"/>
       <use x="63.623046875" xlink:href="#BitstreamVeraSans-Roman-30"/>
      </g>
     </g>
    </g>
    <g id="xtick_3">
     <g id="line2d_6">
      <g>
       <use style="stroke:#000000;stroke-width:0.5;" x="128.4" xlink:href="#m081af9802c" y="252.0"/>
      </g>
     </g>
     <g id="line2d_7">
      <g>
       <use style="stroke:#000000;stroke-width:0.5;" x="128.4" xlink:href="#m1eceab7060" y="28.8"/>
      </g>
     </g>
     <g id="text_3">
      <!-- 100 -->
      <defs>
       <path d="M 12.40625 8.296875 
L 28.515625 8.296875 
L 28.515625 63.921875 
L 10.984375 60.40625 
L 10.984375 69.390625 
L 28.421875 72.90625 
L 38.28125 72.90625 
L 38.28125 8.296875 
L 54.390625 8.296875 
L 54.390625 0 
L 12.40625 0 
z
" id="BitstreamVeraSans-Roman-31"/>
      </defs>
      <g transform="translate(118.85625 263.5984375)scale(0.1 -0.1)">
       <use xlink:href="#BitstreamVeraSans-Roman-31"/>
       <use x="63.623046875" xlink:href="#BitstreamVeraSans-Roman-30"/>
       <use x="127.24609375" xlink:href="#BitstreamVeraSans-Roman-30"/>
      </g>
     </g>
    </g>
    <g id="xtick_4">
     <g id="line2d_8">
      <g>
       <use style="stroke:#000000;stroke-width:0.5;" x="165.6" xlink:href="#m081af9802c" y="252.0"/>
      </g>
     </g>
     <g id="line2d_9">
      <g>
       <use style="stroke:#000000;stroke-width:0.5;" x="165.6" xlink:href="#m1eceab7060" y="28.8"/>
      </g>
     </g>
     <g id="text_4">
      <!-- 150 -->
      <g transform="translate(156.05625 263.5984375)scale(0.1 -0.1)">
       <use xlink:href="#BitstreamVeraSans-Roman-31"/>
       <use x="63.623046875" xlink:href="#BitstreamVeraSans-Roman-35"/>
       <use x="127.24609375" xlink:href="#BitstreamVeraSans-Roman-30"/>
      </g>
     </g>
    </g>
    <g id="xtick_5">
     <g id="line2d_10">
      <g>
       <use style="stroke:#000000;stroke-width:0.5;" x="202.8" xlink:href="#m081af9802c" y="252.0"/>
      </g>
     </g>
     <g id="line2d_11">
      <g>
       <use style="stroke:#000000;stroke-width:0.5;" x="202.8" xlink:href="#m1eceab7060" y="28.8"/>
      </g>
     </g>
     <g id="text_5">
      <!-- 200 -->
      <defs>
       <path d="M 19.1875 8.296875 
L 53.609375 8.296875 
L 53.609375 0 
L 7.328125 0 
L 7.328125 8.296875 
Q 12.9375 14.109375 22.625 23.890625 
Q 32.328125 33.6875 34.8125 36.53125 
Q 39.546875 41.84375 41.421875 45.53125 
Q 43.3125 49.21875 43.3125 52.78125 
Q 43.3125 58.59375 39.234375 62.25 
Q 35.15625 65.921875 28.609375 65.921875 
Q 23.96875 65.921875 18.8125 64.3125 
Q 13.671875 62.703125 7.8125 59.421875 
L 7.8125 69.390625 
Q 13.765625 71.78125 18.9375 73 
Q 24.125 74.21875 28.421875 74.21875 
Q 39.75 74.21875 46.484375 68.546875 
Q 53.21875 62.890625 53.21875 53.421875 
Q 53.21875 48.921875 51.53125 44.890625 
Q 49.859375 40.875 45.40625 35.40625 
Q 44.1875 33.984375 37.640625 27.21875 
Q 31.109375 20.453125 19.1875 8.296875 
" id="BitstreamVeraSans-Roman-32"/>
      </defs>
      <g transform="translate(193.25625 263.5984375)scale(0.1 -0.1)">
       <use xlink:href="#BitstreamVeraSans-Roman-32"/>
       <use x="63.623046875" xlink:href="#BitstreamVeraSans-Roman-30"/>
       <use x="127.24609375" xlink:href="#BitstreamVeraSans-Roman-30"/>
      </g>
     </g>
    </g>
    <g id="xtick_6">
     <g id="line2d_12">
      <g>
       <use style="stroke:#000000;stroke-width:0.5;" x="240.0" xlink:href="#m081af9802c" y="252.0"/>
      </g>
     </g>
     <g id="line2d_13">
      <g>
       <use style="stroke:#000000;stroke-width:0.5;" x="240.0" xlink:href="#m1eceab7060" y="28.8"/>
      </g>
     </g>
     <g id="text_6">
      <!-- 250 -->
      <g transform="translate(230.45625 263.5984375)scale(0.1 -0.1)">
       <use xlink:href="#BitstreamVeraSans-Roman-32"/>
       <use x="63.623046875" xlink:href="#BitstreamVeraSans-Roman-35"/>
       <use x="127.24609375" xlink:href="#BitstreamVeraSans-Roman-30"/>
      </g>
     </g>
    </g>
    <g id="xtick_7">
     <g id="line2d_14">
      <g>
       <use style="stroke:#000000;stroke-width:0.5;" x="277.2" xlink:href="#m081af9802c" y="252.0"/>
      </g>
     </g>
     <g id="line2d_15">
      <g>
       <use style="stroke:#000000;stroke-width:0.5;" x="277.2" xlink:href="#m1eceab7060" y="28.8"/>
      </g>
     </g>
     <g id="text_7">
      <!-- 300 -->
      <defs>
       <path d="M 40.578125 39.3125 
Q 47.65625 37.796875 51.625 33 
Q 55.609375 28.21875 55.609375 21.1875 
Q 55.609375 10.40625 48.1875 4.484375 
Q 40.765625 -1.421875 27.09375 -1.421875 
Q 22.515625 -1.421875 17.65625 -0.515625 
Q 12.796875 0.390625 7.625 2.203125 
L 7.625 11.71875 
Q 11.71875 9.328125 16.59375 8.109375 
Q 21.484375 6.890625 26.8125 6.890625 
Q 36.078125 6.890625 40.9375 10.546875 
Q 45.796875 14.203125 45.796875 21.1875 
Q 45.796875 27.640625 41.28125 31.265625 
Q 36.765625 34.90625 28.71875 34.90625 
L 20.21875 34.90625 
L 20.21875 43.015625 
L 29.109375 43.015625 
Q 36.375 43.015625 40.234375 45.921875 
Q 44.09375 48.828125 44.09375 54.296875 
Q 44.09375 59.90625 40.109375 62.90625 
Q 36.140625 65.921875 28.71875 65.921875 
Q 24.65625 65.921875 20.015625 65.03125 
Q 15.375 64.15625 9.8125 62.3125 
L 9.8125 71.09375 
Q 15.4375 72.65625 20.34375 73.4375 
Q 25.25 74.21875 29.59375 74.21875 
Q 40.828125 74.21875 47.359375 69.109375 
Q 53.90625 64.015625 53.90625 55.328125 
Q 53.90625 49.265625 50.4375 45.09375 
Q 46.96875 40.921875 40.578125 39.3125 
" id="BitstreamVeraSans-Roman-33"/>
      </defs>
      <g transform="translate(267.65625 263.5984375)scale(0.1 -0.1)">
       <use xlink:href="#BitstreamVeraSans-Roman-33"/>
       <use x="63.623046875" xlink:href="#BitstreamVeraSans-Roman-30"/>
       <use x="127.24609375" xlink:href="#BitstreamVeraSans-Roman-30"/>
      </g>
     </g>
    </g>
    <g id="xtick_8">
     <g id="line2d_16">
      <g>
       <use style="stroke:#000000;stroke-width:0.5;" x="314.4" xlink:href="#m081af9802c" y="252.0"/>
      </g>
     </g>
     <g id="line2d_17">
      <g>
       <use style="stroke:#000000;stroke-width:0.5;" x="314.4" xlink:href="#m1eceab7060" y="28.8"/>
      </g>
     </g>
     <g id="text_8">
      <!-- 350 -->
      <g transform="translate(304.85625 263.5984375)scale(0.1 -0.1)">
       <use xlink:href="#BitstreamVeraSans-Roman-33"/>
       <use x="63.623046875" xlink:href="#BitstreamVeraSans-Roman-35"/>
       <use x="127.24609375" xlink:href="#BitstreamVeraSans-Roman-30"/>
      </g>
     </g>
    </g>
    <g id="xtick_9">
     <g id="line2d_18">
      <g>
       <use style="stroke:#000000;stroke-width:0.5;" x="351.6" xlink:href="#m081af9802c" y="252.0"/>
      </g>
     </g>
     <g id="line2d_19">
      <g>
       <use style="stroke:#000000;stroke-width:0.5;" x="351.6" xlink:href="#m1eceab7060" y="28.8"/>
      </g>
     </g>
     <g id="text_9">
      <!-- 400 -->
      <defs>
       <path d="M 37.796875 64.3125 
L 12.890625 25.390625 
L 37.796875 25.390625 
z
M 35.203125 72.90625 
L 47.609375 72.90625 
L 47.609375 25.390625 
L 58.015625 25.390625 
L 58.015625 17.1875 
L 47.609375 17.1875 
L 47.609375 0 
L 37.796875 0 
L 37.796875 17.1875 
L 4.890625 17.1875 
L 4.890625 26.703125 
z
" id="BitstreamVeraSans-Roman-34"/>
      </defs>
      <g transform="translate(342.05625 263.5984375)scale(0.1 -0.1)">
       <use xlink:href="#BitstreamVeraSans-Roman-34"/>
       <use x="63.623046875" xlink:href="#BitstreamVeraSans-Roman-30"/>
       <use x="127.24609375" xlink:href="#BitstreamVeraSans-Roman-30"/>
      </g>
     </g>
    </g>
    <g id="xtick_10">
     <g id="line2d_20">
      <g>
       <use style="stroke:#000000;stroke-width:0.5;" x="388.8" xlink:href="#m081af9802c" y="252.0"/>
      </g>
     </g>
     <g id="line2d_21">
      <g>
       <use style="stroke:#000000;stroke-width:0.5;" x="388.8" xlink:href="#m1eceab7060" y="28.8"/>
      </g>
     </g>
     <g id="text_10">
      <!-- 450 -->
      <g transform="translate(379.25625 263.5984375)scale(0.1 -0.1)">
       <use xlink:href="#BitstreamVeraSans-Roman-34"/>
       <use x="63.623046875" xlink:href="#BitstreamVeraSans-Roman-35"/>
       <use x="127.24609375" xlink:href="#BitstreamVeraSans-Roman-30"/>
      </g>
     </g>
    </g>
   </g>
   <g id="matplotlib.axis_2">
    <g id="ytick_1">
     <g id="line2d_22">
      <defs>
       <path d="M 0 0 
L 4 0 
" id="m6efd33b367" style="stroke:#000000;stroke-width:0.5;"/>
      </defs>
      <g>
       <use style="stroke:#000000;stroke-width:0.5;" x="54.0" xlink:href="#m6efd33b367" y="252.0"/>
      </g>
     </g>
     <g id="line2d_23">
      <defs>
       <path d="M 0 0 
L -4 0 
" id="m9a772dcfdb" style="stroke:#000000;stroke-width:0.5;"/>
      </defs>
      <g>
       <use style="stroke:#000000;stroke-width:0.5;" x="388.8" xlink:href="#m9a772dcfdb" y="252.0"/>
      </g>
     </g>
     <g id="text_11">
      <!-- 0 -->
      <g transform="translate(43.6375 254.759375)scale(0.1 -0.1)">
       <use xlink:href="#BitstreamVeraSans-Roman-30"/>
      </g>
     </g>
    </g>
    <g id="ytick_2">
     <g id="line2d_24">
      <g>
       <use style="stroke:#000000;stroke-width:0.5;" x="54.0" xlink:href="#m6efd33b367" y="224.1"/>
      </g>
     </g>
     <g id="line2d_25">
      <g>
       <use style="stroke:#000000;stroke-width:0.5;" x="388.8" xlink:href="#m9a772dcfdb" y="224.1"/>
      </g>
     </g>
     <g id="text_12">
      <!-- 100 -->
      <g transform="translate(30.9125 226.859375)scale(0.1 -0.1)">
       <use xlink:href="#BitstreamVeraSans-Roman-31"/>
       <use x="63.623046875" xlink:href="#BitstreamVeraSans-Roman-30"/>
       <use x="127.24609375" xlink:href="#BitstreamVeraSans-Roman-30"/>
      </g>
     </g>
    </g>
    <g id="ytick_3">
     <g id="line2d_26">
      <g>
       <use style="stroke:#000000;stroke-width:0.5;" x="54.0" xlink:href="#m6efd33b367" y="196.2"/>
      </g>
     </g>
     <g id="line2d_27">
      <g>
       <use style="stroke:#000000;stroke-width:0.5;" x="388.8" xlink:href="#m9a772dcfdb" y="196.2"/>
      </g>
     </g>
     <g id="text_13">
      <!-- 200 -->
      <g transform="translate(30.9125 198.959375)scale(0.1 -0.1)">
       <use xlink:href="#BitstreamVeraSans-Roman-32"/>
       <use x="63.623046875" xlink:href="#BitstreamVeraSans-Roman-30"/>
       <use x="127.24609375" xlink:href="#BitstreamVeraSans-Roman-30"/>
      </g>
     </g>
    </g>
    <g id="ytick_4">
     <g id="line2d_28">
      <g>
       <use style="stroke:#000000;stroke-width:0.5;" x="54.0" xlink:href="#m6efd33b367" y="168.3"/>
      </g>
     </g>
     <g id="line2d_29">
      <g>
       <use style="stroke:#000000;stroke-width:0.5;" x="388.8" xlink:href="#m9a772dcfdb" y="168.3"/>
      </g>
     </g>
     <g id="text_14">
      <!-- 300 -->
      <g transform="translate(30.9125 171.059375)scale(0.1 -0.1)">
       <use xlink:href="#BitstreamVeraSans-Roman-33"/>
       <use x="63.623046875" xlink:href="#BitstreamVeraSans-Roman-30"/>
       <use x="127.24609375" xlink:href="#BitstreamVeraSans-Roman-30"/>
      </g>
     </g>
    </g>
    <g id="ytick_5">
     <g id="line2d_30">
      <g>
       <use style="stroke:#000000;stroke-width:0.5;" x="54.0" xlink:href="#m6efd33b367" y="140.4"/>
      </g>
     </g>
     <g id="line2d_31">
      <g>
       <use style="stroke:#000000;stroke-width:0.5;" x="388.8" xlink:href="#m9a772dcfdb" y="140.4"/>
      </g>
     </g>
     <g id="text_15">
      <!-- 400 -->
      <g transform="translate(30.9125 143.159375)scale(0.1 -0.1)">
       <use xlink:href="#BitstreamVeraSans-Roman-34"/>
       <use x="63.623046875" xlink:href="#BitstreamVeraSans-Roman-30"/>
       <use x="127.24609375" xlink:href="#BitstreamVeraSans-Roman-30"/>
      </g>
     </g>
    </g>
    <g id="ytick_6">
     <g id="line2d_32">
      <g>
       <use style="stroke:#000000;stroke-width:0.5;" x="54.0" xlink:href="#m6efd33b367" y="112.5"/>
      </g>
     </g>
     <g id="line2d_33">
      <g>
       <use style="stroke:#000000;stroke-width:0.5;" x="388.8" xlink:href="#m9a772dcfdb" y="112.5"/>
      </g>
     </g>
     <g id="text_16">
      <!-- 500 -->
      <g transform="translate(30.9125 115.259375)scale(0.1 -0.1)">
       <use xlink:href="#BitstreamVeraSans-Roman-35"/>
       <use x="63.623046875" xlink:href="#BitstreamVeraSans-Roman-30"/>
       <use x="127.24609375" xlink:href="#BitstreamVeraSans-Roman-30"/>
      </g>
     </g>
    </g>
    <g id="ytick_7">
     <g id="line2d_34">
      <g>
       <use style="stroke:#000000;stroke-width:0.5;" x="54.0" xlink:href="#m6efd33b367" y="84.6"/>
      </g>
     </g>
     <g id="line2d_35">
      <g>
       <use style="stroke:#000000;stroke-width:0.5;" x="388.8" xlink:href="#m9a772dcfdb" y="84.6"/>
      </g>
     </g>
     <g id="text_17">
      <!-- 600 -->
      <defs>
       <path d="M 33.015625 40.375 
Q 26.375 40.375 22.484375 35.828125 
Q 18.609375 31.296875 18.609375 23.390625 
Q 18.609375 15.53125 22.484375 10.953125 
Q 26.375 6.390625 33.015625 6.390625 
Q 39.65625 6.390625 43.53125 10.953125 
Q 47.40625 15.53125 47.40625 23.390625 
Q 47.40625 31.296875 43.53125 35.828125 
Q 39.65625 40.375 33.015625 40.375 
M 52.59375 71.296875 
L 52.59375 62.3125 
Q 48.875 64.0625 45.09375 64.984375 
Q 41.3125 65.921875 37.59375 65.921875 
Q 27.828125 65.921875 22.671875 59.328125 
Q 17.53125 52.734375 16.796875 39.40625 
Q 19.671875 43.65625 24.015625 45.921875 
Q 28.375 48.1875 33.59375 48.1875 
Q 44.578125 48.1875 50.953125 41.515625 
Q 57.328125 34.859375 57.328125 23.390625 
Q 57.328125 12.15625 50.6875 5.359375 
Q 44.046875 -1.421875 33.015625 -1.421875 
Q 20.359375 -1.421875 13.671875 8.265625 
Q 6.984375 17.96875 6.984375 36.375 
Q 6.984375 53.65625 15.1875 63.9375 
Q 23.390625 74.21875 37.203125 74.21875 
Q 40.921875 74.21875 44.703125 73.484375 
Q 48.484375 72.75 52.59375 71.296875 
" id="BitstreamVeraSans-Roman-36"/>
      </defs>
      <g transform="translate(30.9125 87.359375)scale(0.1 -0.1)">
       <use xlink:href="#BitstreamVeraSans-Roman-36"/>
       <use x="63.623046875" xlink:href="#BitstreamVeraSans-Roman-30"/>
       <use x="127.24609375" xlink:href="#BitstreamVeraSans-Roman-30"/>
      </g>
     </g>
    </g>
    <g id="ytick_8">
     <g id="line2d_36">
      <g>
       <use style="stroke:#000000;stroke-width:0.5;" x="54.0" xlink:href="#m6efd33b367" y="56.7"/>
      </g>
     </g>
     <g id="line2d_37">
      <g>
       <use style="stroke:#000000;stroke-width:0.5;" x="388.8" xlink:href="#m9a772dcfdb" y="56.7"/>
      </g>
     </g>
     <g id="text_18">
      <!-- 700 -->
      <defs>
       <path d="M 8.203125 72.90625 
L 55.078125 72.90625 
L 55.078125 68.703125 
L 28.609375 0 
L 18.3125 0 
L 43.21875 64.59375 
L 8.203125 64.59375 
z
" id="BitstreamVeraSans-Roman-37"/>
      </defs>
      <g transform="translate(30.9125 59.459375)scale(0.1 -0.1)">
       <use xlink:href="#BitstreamVeraSans-Roman-37"/>
       <use x="63.623046875" xlink:href="#BitstreamVeraSans-Roman-30"/>
       <use x="127.24609375" xlink:href="#BitstreamVeraSans-Roman-30"/>
      </g>
     </g>
    </g>
    <g id="ytick_9">
     <g id="line2d_38">
      <g>
       <use style="stroke:#000000;stroke-width:0.5;" x="54.0" xlink:href="#m6efd33b367" y="28.8"/>
      </g>
     </g>
     <g id="line2d_39">
      <g>
       <use style="stroke:#000000;stroke-width:0.5;" x="388.8" xlink:href="#m9a772dcfdb" y="28.8"/>
      </g>
     </g>
     <g id="text_19">
      <!-- 800 -->
      <defs>
       <path d="M 31.78125 34.625 
Q 24.75 34.625 20.71875 30.859375 
Q 16.703125 27.09375 16.703125 20.515625 
Q 16.703125 13.921875 20.71875 10.15625 
Q 24.75 6.390625 31.78125 6.390625 
Q 38.8125 6.390625 42.859375 10.171875 
Q 46.921875 13.96875 46.921875 20.515625 
Q 46.921875 27.09375 42.890625 30.859375 
Q 38.875 34.625 31.78125 34.625 
M 21.921875 38.8125 
Q 15.578125 40.375 12.03125 44.71875 
Q 8.5 49.078125 8.5 55.328125 
Q 8.5 64.0625 14.71875 69.140625 
Q 20.953125 74.21875 31.78125 74.21875 
Q 42.671875 74.21875 48.875 69.140625 
Q 55.078125 64.0625 55.078125 55.328125 
Q 55.078125 49.078125 51.53125 44.71875 
Q 48 40.375 41.703125 38.8125 
Q 48.828125 37.15625 52.796875 32.3125 
Q 56.78125 27.484375 56.78125 20.515625 
Q 56.78125 9.90625 50.3125 4.234375 
Q 43.84375 -1.421875 31.78125 -1.421875 
Q 19.734375 -1.421875 13.25 4.234375 
Q 6.78125 9.90625 6.78125 20.515625 
Q 6.78125 27.484375 10.78125 32.3125 
Q 14.796875 37.15625 21.921875 38.8125 
M 18.3125 54.390625 
Q 18.3125 48.734375 21.84375 45.5625 
Q 25.390625 42.390625 31.78125 42.390625 
Q 38.140625 42.390625 41.71875 45.5625 
Q 45.3125 48.734375 45.3125 54.390625 
Q 45.3125 60.0625 41.71875 63.234375 
Q 38.140625 66.40625 31.78125 66.40625 
Q 25.390625 66.40625 21.84375 63.234375 
Q 18.3125 60.0625 18.3125 54.390625 
" id="BitstreamVeraSans-Roman-38"/>
      </defs>
      <g transform="translate(30.9125 31.559375)scale(0.1 -0.1)">
       <use xlink:href="#BitstreamVeraSans-Roman-38"/>
       <use x="63.623046875" xlink:href="#BitstreamVeraSans-Roman-30"/>
       <use x="127.24609375" xlink:href="#BitstreamVeraSans-Roman-30"/>
      </g>
     </g>
    </g>
   </g>
  </g>
 </g>
 <defs>
  <clipPath id="p9fd87f4179">
   <rect height="223.2" width="334.8" x="54.0" y="28.8"/>
  </clipPath>
 </defs>
</svg>
